<?xml version="1.0" encoding="UTF-8" standalone="no"?>
<!DOCTYPE svg PUBLIC "-//W3C//DTD SVG 1.1//EN"
 "http://www.w3.org/Graphics/SVG/1.1/DTD/svg11.dtd">
<!-- Generated by graphviz version 14.1.5 (0)
 -->
<!-- Title: c4_system_context Pages: 1 -->
<svg width="1291pt" height="406pt"
 viewBox="13.00 13.00 1278.00 394.00" xmlns="http://www.w3.org/2000/svg" xmlns:xlink="http://www.w3.org/1999/xlink">
<g id="graph0" class="graph" transform="scale(1 1) rotate(0) translate(27.36 379.1)">
<title>c4_system_context</title>
<polygon fill="white" stroke="none" points="-14.4,14.4 -14.4,-366.14 1250.97,-366.14 1250.97,14.4 -14.4,14.4"/>
<text xml:space="preserve" text-anchor="middle" x="618.29" y="-330.64" font-family="Inter,Arial,sans-serif" font-size="18.00">C4 System Context &#45; Synthetic E&#45;commerce Session Simulation Pipeline</text>
<!-- researcher -->
<g id="node1" class="node">
<title>researcher</title>
<ellipse fill="#e0f2fe" stroke="#344054" stroke-width="1.2" cx="135.26" cy="-258.48" rx="135.26" ry="36.78"/>
<text xml:space="preserve" text-anchor="middle" x="135.26" y="-268.28" font-family="Inter,Arial,sans-serif" font-size="11.00">Researcher / Thesis Author</text>
<text xml:space="preserve" text-anchor="middle" x="135.26" y="-254.78" font-family="Inter,Arial,sans-serif" font-size="11.00">Runs uv CLI stages, selects models,</text>
<text xml:space="preserve" text-anchor="middle" x="135.26" y="-241.28" font-family="Inter,Arial,sans-serif" font-size="11.00">reads reports</text>
</g>
<!-- filesystem -->
<g id="node6" class="node">
<title>filesystem</title>
<polygon fill="#f2f4f7" stroke="#344054" stroke-width="1.2" points="1201.7,-230.74 1198.7,-234.74 1177.7,-234.74 1174.7,-230.74 1096.67,-230.74 1096.67,-192.22 1201.7,-192.22 1201.7,-230.74"/>
<text xml:space="preserve" text-anchor="middle" x="1149.18" y="-214.53" font-family="Inter,Arial,sans-serif" font-size="11.00">Local artifact store</text>
<text xml:space="preserve" text-anchor="middle" x="1149.18" y="-201.03" font-family="Inter,Arial,sans-serif" font-size="11.00">pipeline/output/**</text>
</g>
<!-- researcher&#45;&gt;filesystem -->
<g id="edge9" class="edge">
<title>researcher&#45;&gt;filesystem</title>
<path fill="none" stroke="#475467" stroke-width="1.1" d="M269.8,-253.87C520.11,-245.24 1034.79,-227.48 1034.79,-227.48 1034.79,-227.48 1060.47,-223.86 1087.38,-220.06"/>
<polygon fill="#475467" stroke="#475467" stroke-width="1.1" points="1087.42,-222.71 1094.48,-219.06 1086.69,-217.51 1087.42,-222.71"/>
<text xml:space="preserve" text-anchor="middle" x="631.65" y="-249.07" font-family="Inter,Arial,sans-serif" font-size="10.00">selects eval_model and artifacts</text>
</g>
<!-- reports -->
<g id="node7" class="node">
<title>reports</title>
<polygon fill="#fef3c7" stroke="#344054" stroke-width="1.2" points="1195.32,-322.74 1097.04,-322.74 1097.04,-284.22 1201.32,-284.22 1201.32,-316.74 1195.32,-322.74"/>
<polyline fill="none" stroke="#344054" stroke-width="1.2" points="1195.32,-322.74 1195.32,-316.74"/>
<polyline fill="none" stroke="#344054" stroke-width="1.2" points="1201.32,-316.74 1195.32,-316.74"/>
<text xml:space="preserve" text-anchor="middle" x="1149.18" y="-306.53" font-family="Inter,Arial,sans-serif" font-size="11.00">Evaluation reports</text>
<text xml:space="preserve" text-anchor="middle" x="1149.18" y="-293.03" font-family="Inter,Arial,sans-serif" font-size="11.00">HTML + JSON</text>
</g>
<!-- researcher&#45;&gt;reports -->
<g id="edge8" class="edge">
<title>researcher&#45;&gt;reports</title>
<path fill="none" stroke="#475467" stroke-width="1.1" d="M263.71,-270.34C283.48,-272.18 297.51,-273.48 297.51,-273.48 297.51,-273.48 893.2,-294.49 1087.62,-301.35"/>
<polygon fill="#475467" stroke="#475467" stroke-width="1.1" points="1087.31,-303.96 1094.9,-301.6 1087.5,-298.72 1087.31,-303.96"/>
<text xml:space="preserve" text-anchor="middle" x="631.65" y="-292.98" font-family="Inter,Arial,sans-serif" font-size="10.00">reviews thesis metrics</text>
</g>
<!-- pipeline -->
<g id="node8" class="node">
<title>pipeline</title>
<path fill="#dbeafe" stroke="#344054" stroke-width="2" d="M777.54,-163.74C777.54,-163.74 485.76,-163.74 485.76,-163.74 479.76,-163.74 473.76,-157.74 473.76,-151.74 473.76,-151.74 473.76,-137.22 473.76,-137.22 473.76,-131.22 479.76,-125.22 485.76,-125.22 485.76,-125.22 777.54,-125.22 777.54,-125.22 783.54,-125.22 789.54,-131.22 789.54,-137.22 789.54,-137.22 789.54,-151.74 789.54,-151.74 789.54,-157.74 783.54,-163.74 777.54,-163.74"/>
<text xml:space="preserve" text-anchor="middle" x="631.65" y="-147.53" font-family="Inter,Arial,sans-serif" font-size="11.00">Simulation Pipeline</text>
<text xml:space="preserve" text-anchor="middle" x="631.65" y="-134.03" font-family="Inter,Arial,sans-serif" font-size="11.00">preprocess &#45;&gt; SVD&#45;PQ &#45;&gt; train &#45;&gt; evaluate &#45;&gt; simulate/upload</text>
</g>
<!-- researcher&#45;&gt;pipeline -->
<g id="edge1" class="edge">
<title>researcher&#45;&gt;pipeline</title>
<path fill="none" stroke="#475467" stroke-width="1.1" d="M217.36,-228.81C257.51,-214.12 297.51,-199.48 297.51,-199.48 297.51,-199.48 405.92,-181.58 499.06,-166.21"/>
<polygon fill="#475467" stroke="#475467" stroke-width="1.1" points="499.41,-168.81 506.38,-165 498.55,-163.63 499.41,-168.81"/>
<text xml:space="preserve" text-anchor="middle" x="372.14" y="-213.98" font-family="Inter,Arial,sans-serif" font-size="10.00">executes main.py / stage CLIs</text>
<text xml:space="preserve" text-anchor="middle" x="372.14" y="-201.98" font-family="Inter,Arial,sans-serif" font-size="10.00">passes &#45;&#45;from, &#45;&#45;stages, eval flags</text>
</g>
<!-- raw -->
<g id="node2" class="node">
<title>raw</title>
<path fill="#fff7ed" stroke="#344054" stroke-width="1.2" d="M220.77,-181.34C220.77,-185.86 182.44,-189.53 135.26,-189.53 88.07,-189.53 49.74,-185.86 49.74,-181.34 49.74,-181.34 49.74,-107.63 49.74,-107.63 49.74,-103.11 88.07,-99.44 135.26,-99.44 182.44,-99.44 220.77,-103.11 220.77,-107.63 220.77,-107.63 220.77,-181.34 220.77,-181.34"/>
<path fill="none" stroke="#344054" stroke-width="1.2" d="M220.77,-181.34C220.77,-176.82 182.44,-173.15 135.26,-173.15 88.07,-173.15 49.74,-176.82 49.74,-181.34"/>
<text xml:space="preserve" text-anchor="middle" x="135.26" y="-161.03" font-family="Inter,Arial,sans-serif" font-size="11.00">../DATA raw Synerise Parquets</text>
<text xml:space="preserve" text-anchor="middle" x="135.26" y="-147.53" font-family="Inter,Arial,sans-serif" font-size="11.00">page_visit, search_query,</text>
<text xml:space="preserve" text-anchor="middle" x="135.26" y="-134.03" font-family="Inter,Arial,sans-serif" font-size="11.00">add_to_cart, remove_from_cart,</text>
<text xml:space="preserve" text-anchor="middle" x="135.26" y="-120.53" font-family="Inter,Arial,sans-serif" font-size="11.00">product_buy</text>
</g>
<!-- raw&#45;&gt;pipeline -->
<g id="edge2" class="edge">
<title>raw&#45;&gt;pipeline</title>
<path fill="none" stroke="#475467" stroke-width="1.1" d="M221.24,-144.48C287.84,-144.48 382.55,-144.48 464.11,-144.48"/>
<polygon fill="#475467" stroke="#475467" stroke-width="1.1" points="463.81,-147.11 471.31,-144.48 463.81,-141.86 463.81,-147.11"/>
<text xml:space="preserve" text-anchor="middle" x="372.14" y="-146.98" font-family="Inter,Arial,sans-serif" font-size="10.00">raw events</text>
</g>
<!-- props -->
<g id="node3" class="node">
<title>props</title>
<path fill="#fff7ed" stroke="#344054" stroke-width="1.2" d="M231.27,-62.15C231.27,-64.81 188.23,-66.97 135.26,-66.97 82.28,-66.97 39.24,-64.81 39.24,-62.15 39.24,-62.15 39.24,-18.82 39.24,-18.82 39.24,-16.16 82.28,-14 135.26,-14 188.23,-14 231.27,-16.16 231.27,-18.82 231.27,-18.82 231.27,-62.15 231.27,-62.15"/>
<path fill="none" stroke="#344054" stroke-width="1.2" d="M231.27,-62.15C231.27,-59.49 188.23,-57.33 135.26,-57.33 82.28,-57.33 39.24,-59.49 39.24,-62.15"/>
<text xml:space="preserve" text-anchor="middle" x="135.26" y="-43.53" font-family="Inter,Arial,sans-serif" font-size="11.00">../DATA/product_properties.parquet</text>
<text xml:space="preserve" text-anchor="middle" x="135.26" y="-30.03" font-family="Inter,Arial,sans-serif" font-size="11.00">sku, category, price, quantized name</text>
</g>
<!-- props&#45;&gt;pipeline -->
<g id="edge3" class="edge">
<title>props&#45;&gt;pipeline</title>
<path fill="none" stroke="#475467" stroke-width="1.1" d="M231.58,-60.53C315.81,-78.25 438.46,-104.05 525.51,-122.37"/>
<polygon fill="#475467" stroke="#475467" stroke-width="1.1" points="524.85,-124.91 532.73,-123.88 525.93,-119.77 524.85,-124.91"/>
<text xml:space="preserve" text-anchor="middle" x="372.14" y="-107.36" font-family="Inter,Arial,sans-serif" font-size="10.00">product metadata</text>
</g>
<!-- wandb -->
<g id="node4" class="node">
<title>wandb</title>
<path fill="#f5f3ff" stroke="#344054" stroke-width="1.2" d="M1220.82,-123.74C1220.82,-123.74 1077.54,-123.74 1077.54,-123.74 1071.54,-123.74 1065.54,-117.74 1065.54,-111.74 1065.54,-111.74 1065.54,-97.22 1065.54,-97.22 1065.54,-91.22 1071.54,-85.22 1077.54,-85.22 1077.54,-85.22 1220.82,-85.22 1220.82,-85.22 1226.82,-85.22 1232.82,-91.22 1232.82,-97.22 1232.82,-97.22 1232.82,-111.74 1232.82,-111.74 1232.82,-117.74 1226.82,-123.74 1220.82,-123.74"/>
<text xml:space="preserve" text-anchor="middle" x="1149.18" y="-107.53" font-family="Inter,Arial,sans-serif" font-size="11.00">Weights &amp; Biases</text>
<text xml:space="preserve" text-anchor="middle" x="1149.18" y="-94.03" font-family="Inter,Arial,sans-serif" font-size="11.00">training metrics and diagnostics</text>
</g>
<!-- mongo -->
<g id="node5" class="node">
<title>mongo</title>
<path fill="#ecfdf3" stroke="#344054" stroke-width="1.2" d="M1236.57,-48.15C1236.57,-50.81 1197.4,-52.97 1149.18,-52.97 1100.96,-52.97 1061.79,-50.81 1061.79,-48.15 1061.79,-48.15 1061.79,-4.82 1061.79,-4.82 1061.79,-2.16 1100.96,0 1149.18,0 1197.4,0 1236.57,-2.16 1236.57,-4.82 1236.57,-4.82 1236.57,-48.15 1236.57,-48.15"/>
<path fill="none" stroke="#344054" stroke-width="1.2" d="M1236.57,-48.15C1236.57,-45.49 1197.4,-43.33 1149.18,-43.33 1100.96,-43.33 1061.79,-45.49 1061.79,-48.15"/>
<text xml:space="preserve" text-anchor="middle" x="1149.18" y="-29.53" font-family="Inter,Arial,sans-serif" font-size="11.00">MongoDB</text>
<text xml:space="preserve" text-anchor="middle" x="1149.18" y="-16.03" font-family="Inter,Arial,sans-serif" font-size="11.00">real_* and synthetic_* collections</text>
</g>
<!-- pipeline&#45;&gt;wandb -->
<g id="edge5" class="edge">
<title>pipeline&#45;&gt;wandb</title>
<path fill="none" stroke="#475467" stroke-width="1.1" d="M721.09,-124.28C768.2,-113.52 816.54,-102.48 816.54,-102.48 816.54,-102.48 1034.79,-102.48 1034.79,-102.48 1034.79,-102.48 1043.6,-102.64 1056.31,-102.86"/>
<polygon fill="#475467" stroke="#475467" stroke-width="1.1" points="1055.97,-105.48 1063.51,-102.99 1056.06,-100.23 1055.97,-105.48"/>
<text xml:space="preserve" text-anchor="middle" x="925.67" y="-104.98" font-family="Inter,Arial,sans-serif" font-size="10.00">logs train and validation losses</text>
</g>
<!-- pipeline&#45;&gt;mongo -->
<g id="edge7" class="edge">
<title>pipeline&#45;&gt;mongo</title>
<path fill="none" stroke="#475467" stroke-width="1.1" d="M692.61,-124.27C746.27,-106.17 816.54,-82.48 816.54,-82.48 816.54,-82.48 954.75,-59.14 1052.72,-42.6"/>
<polygon fill="#475467" stroke="#475467" stroke-width="1.1" points="1052.88,-45.24 1059.84,-41.4 1052.01,-40.06 1052.88,-45.24"/>
<text xml:space="preserve" text-anchor="middle" x="925.67" y="-84.98" font-family="Inter,Arial,sans-serif" font-size="10.00">ingests real events and uploads synthetic batches</text>
</g>
<!-- pipeline&#45;&gt;filesystem -->
<g id="edge4" class="edge">
<title>pipeline&#45;&gt;filesystem</title>
<path fill="none" stroke="#475467" stroke-width="1.1" d="M790.43,-146.84C903.09,-148.52 1034.79,-150.48 1034.79,-150.48 1034.79,-150.48 1071.73,-170.36 1103.44,-187.41"/>
<polygon fill="#475467" stroke="#475467" stroke-width="1.1" points="1102.05,-189.65 1109.9,-190.89 1104.54,-185.02 1102.05,-189.65"/>
<text xml:space="preserve" text-anchor="middle" x="925.67" y="-164.98" font-family="Inter,Arial,sans-serif" font-size="10.00">clean/test Parquets, caches,</text>
<text xml:space="preserve" text-anchor="middle" x="925.67" y="-152.98" font-family="Inter,Arial,sans-serif" font-size="10.00">checkpoints, samplers, synthetic data</text>
</g>
<!-- pipeline&#45;&gt;reports -->
<g id="edge6" class="edge">
<title>pipeline&#45;&gt;reports</title>
<path fill="none" stroke="#475467" stroke-width="1.1" d="M698.2,-164.7C799.03,-195.8 990.69,-254.91 1088.1,-284.95"/>
<polygon fill="#475467" stroke="#475467" stroke-width="1.1" points="1087.13,-287.4 1095.07,-287.1 1088.68,-282.38 1087.13,-287.4"/>
<text xml:space="preserve" text-anchor="middle" x="925.67" y="-267.56" font-family="Inter,Arial,sans-serif" font-size="10.00">writes report&#45;* outputs</text>
</g>
</g>
</svg>
