<?xml version="1.0" encoding="UTF-8" standalone="no"?>
<!DOCTYPE svg PUBLIC "-//W3C//DTD SVG 1.1//EN"
 "http://www.w3.org/Graphics/SVG/1.1/DTD/svg11.dtd">
<!-- Generated by graphviz version 14.1.5 (0)
 -->
<!-- Title: c4_container_pipeline Pages: 1 -->
<svg width="1617pt" height="1467pt"
 viewBox="13.00 13.00 1604.00 1454.00" xmlns="http://www.w3.org/2000/svg" xmlns:xlink="http://www.w3.org/1999/xlink">
<g id="graph0" class="graph" transform="scale(1 1) rotate(0) translate(27.36 1439.4)">
<title>c4_container_pipeline</title>
<polygon fill="white" stroke="none" points="-14.4,14.4 -14.4,-1426.44 1576.29,-1426.44 1576.29,14.4 -14.4,14.4"/>
<text xml:space="preserve" text-anchor="middle" x="780.94" y="-1390.94" font-family="Inter,Arial,sans-serif" font-size="18.00">C4 Container View &#45; Pipeline Runtime and Artifact Stores</text>
<!-- main -->
<g id="node1" class="node">
<title>main</title>
<path fill="#dbeafe" stroke="#344054" stroke-width="2" d="M458.9,-1264.55C458.9,-1264.55 272.88,-1264.55 272.88,-1264.55 266.88,-1264.55 260.88,-1258.55 260.88,-1252.55 260.88,-1252.55 260.88,-1224.53 260.88,-1224.53 260.88,-1218.53 266.88,-1212.53 272.88,-1212.53 272.88,-1212.53 458.9,-1212.53 458.9,-1212.53 464.9,-1212.53 470.9,-1218.53 470.9,-1224.53 470.9,-1224.53 470.9,-1252.55 470.9,-1252.55 470.9,-1258.55 464.9,-1264.55 458.9,-1264.55"/>
<text xml:space="preserve" text-anchor="middle" x="365.89" y="-1248.34" font-family="Inter,Arial,sans-serif" font-size="11.00">main.py</text>
<text xml:space="preserve" text-anchor="middle" x="365.89" y="-1234.84" font-family="Inter,Arial,sans-serif" font-size="11.00">End&#45;to&#45;end stage runner</text>
<text xml:space="preserve" text-anchor="middle" x="365.89" y="-1221.34" font-family="Inter,Arial,sans-serif" font-size="11.00">preprocess &#45;&gt; svdpq &#45;&gt; train &#45;&gt; evaluate</text>
</g>
<!-- preprocess -->
<g id="node5" class="node">
<title>preprocess</title>
<path fill="#e0f2fe" stroke="#344054" stroke-width="1.2" d="M637.28,-1146.05C637.28,-1146.05 474.5,-1146.05 474.5,-1146.05 468.5,-1146.05 462.5,-1140.05 462.5,-1134.05 462.5,-1134.05 462.5,-1092.53 462.5,-1092.53 462.5,-1086.53 468.5,-1080.53 474.5,-1080.53 474.5,-1080.53 637.28,-1080.53 637.28,-1080.53 643.28,-1080.53 649.28,-1086.53 649.28,-1092.53 649.28,-1092.53 649.28,-1134.05 649.28,-1134.05 649.28,-1140.05 643.28,-1146.05 637.28,-1146.05"/>
<text xml:space="preserve" text-anchor="middle" x="555.89" y="-1129.84" font-family="Inter,Arial,sans-serif" font-size="11.00">preprocess.py</text>
<text xml:space="preserve" text-anchor="middle" x="555.89" y="-1116.34" font-family="Inter,Arial,sans-serif" font-size="11.00">merge, dedupe, sample page visits,</text>
<text xml:space="preserve" text-anchor="middle" x="555.89" y="-1102.84" font-family="Inter,Arial,sans-serif" font-size="11.00">sessionize, split train/val/test,</text>
<text xml:space="preserve" text-anchor="middle" x="555.89" y="-1089.34" font-family="Inter,Arial,sans-serif" font-size="11.00">join product properties</text>
</g>
<!-- main&#45;&gt;preprocess -->
<g id="edge1" class="edge">
<title>main&#45;&gt;preprocess</title>
<path fill="none" stroke="#475467" stroke-width="1.1" d="M405.72,-1211.7C432.71,-1194.2 468.78,-1170.8 498.81,-1151.32"/>
<polygon fill="#475467" stroke="#475467" stroke-width="1.1" points="500.04,-1153.65 504.9,-1147.37 497.18,-1149.25 500.04,-1153.65"/>
<text xml:space="preserve" text-anchor="middle" x="472.89" y="-1175.55" font-family="Inter,Arial,sans-serif" font-size="10.00">stage</text>
</g>
<!-- config -->
<g id="node2" class="node">
<title>config</title>
<polygon fill="#eef2ff" stroke="#344054" stroke-width="1.2" points="474.28,-1383.04 257.5,-1383.04 257.5,-1379.04 253.5,-1379.04 253.5,-1375.04 257.5,-1375.04 257.5,-1339.02 253.5,-1339.02 253.5,-1335.02 257.5,-1335.02 257.5,-1331.02 474.28,-1331.02 474.28,-1383.04"/>
<polyline fill="none" stroke="#344054" stroke-width="1.2" points="257.5,-1379.04 261.5,-1379.04 261.5,-1375.04 257.5,-1375.04"/>
<polyline fill="none" stroke="#344054" stroke-width="1.2" points="257.5,-1339.02 261.5,-1339.02 261.5,-1335.02 257.5,-1335.02"/>
<text xml:space="preserve" text-anchor="middle" x="365.89" y="-1366.83" font-family="Inter,Arial,sans-serif" font-size="11.00">config.py + config.yaml</text>
<text xml:space="preserve" text-anchor="middle" x="365.89" y="-1353.33" font-family="Inter,Arial,sans-serif" font-size="11.00">paths, splits, model hyperparams,</text>
<text xml:space="preserve" text-anchor="middle" x="365.89" y="-1339.83" font-family="Inter,Arial,sans-serif" font-size="11.00">eval_model, sampling, GRU4Rec settings</text>
</g>
<!-- config&#45;&gt;main -->
<g id="edge5" class="edge">
<title>config&#45;&gt;main</title>
<path fill="none" stroke="#475467" stroke-width="1.1" stroke-dasharray="5,2" d="M365.89,-1330.47C365.89,-1314.04 365.89,-1292.49 365.89,-1274.49"/>
<polygon fill="#475467" stroke="#475467" stroke-width="1.1" points="368.52,-1274.61 365.89,-1267.11 363.27,-1274.61 368.52,-1274.61"/>
<text xml:space="preserve" text-anchor="middle" x="396.64" y="-1294.52" font-family="Inter,Arial,sans-serif" font-size="10.00">stage settings</text>
</g>
<!-- raw -->
<g id="node3" class="node">
<title>raw</title>
<path fill="#fff7ed" stroke="#344054" stroke-width="1.2" d="M608.78,-1260.2C608.78,-1262.86 585.07,-1265.02 555.89,-1265.02 526.71,-1265.02 503,-1262.86 503,-1260.2 503,-1260.2 503,-1216.87 503,-1216.87 503,-1214.21 526.71,-1212.05 555.89,-1212.05 585.07,-1212.05 608.78,-1214.21 608.78,-1216.87 608.78,-1216.87 608.78,-1260.2 608.78,-1260.2"/>
<path fill="none" stroke="#344054" stroke-width="1.2" d="M608.78,-1260.2C608.78,-1257.55 585.07,-1255.39 555.89,-1255.39 526.71,-1255.39 503,-1257.55 503,-1260.2"/>
<text xml:space="preserve" text-anchor="middle" x="555.89" y="-1241.59" font-family="Inter,Arial,sans-serif" font-size="11.00">../DATA/*.parquet</text>
<text xml:space="preserve" text-anchor="middle" x="555.89" y="-1228.09" font-family="Inter,Arial,sans-serif" font-size="11.00">raw event streams</text>
</g>
<!-- raw&#45;&gt;preprocess -->
<g id="edge6" class="edge">
<title>raw&#45;&gt;preprocess</title>
<path fill="none" stroke="#475467" stroke-width="1.1" d="M555.89,-1211.7C555.89,-1195.4 555.89,-1173.98 555.89,-1155.38"/>
<polygon fill="#475467" stroke="#475467" stroke-width="1.1" points="558.52,-1155.4 555.89,-1147.9 553.27,-1155.4 558.52,-1155.4"/>
</g>
<!-- props -->
<g id="node4" class="node">
<title>props</title>
<path fill="#fff7ed" stroke="#344054" stroke-width="1.2" d="M828.65,-1260.2C828.65,-1262.86 786.63,-1265.02 734.89,-1265.02 683.15,-1265.02 641.12,-1262.86 641.12,-1260.2 641.12,-1260.2 641.12,-1216.87 641.12,-1216.87 641.12,-1214.21 683.15,-1212.05 734.89,-1212.05 786.63,-1212.05 828.65,-1214.21 828.65,-1216.87 828.65,-1216.87 828.65,-1260.2 828.65,-1260.2"/>
<path fill="none" stroke="#344054" stroke-width="1.2" d="M828.65,-1260.2C828.65,-1257.55 786.63,-1255.39 734.89,-1255.39 683.15,-1255.39 641.12,-1257.55 641.12,-1260.2"/>
<text xml:space="preserve" text-anchor="middle" x="734.89" y="-1241.59" font-family="Inter,Arial,sans-serif" font-size="11.00">../DATA/product_properties.parquet</text>
<text xml:space="preserve" text-anchor="middle" x="734.89" y="-1228.09" font-family="Inter,Arial,sans-serif" font-size="11.00">category, price, name</text>
</g>
<!-- props&#45;&gt;preprocess -->
<g id="edge7" class="edge">
<title>props&#45;&gt;preprocess</title>
<path fill="none" stroke="#475467" stroke-width="1.1" d="M697.37,-1211.7C672.05,-1194.27 638.25,-1171 610.03,-1151.57"/>
<polygon fill="#475467" stroke="#475467" stroke-width="1.1" points="611.65,-1149.5 603.98,-1147.41 608.67,-1153.82 611.65,-1149.5"/>
</g>
<!-- clean -->
<g id="node6" class="node">
<title>clean</title>
<path fill="#ecfdf3" stroke="#344054" stroke-width="1.2" d="M340.4,-1020.72C340.4,-1023.38 306.11,-1025.53 263.89,-1025.53 221.67,-1025.53 187.38,-1023.38 187.38,-1020.72 187.38,-1020.72 187.38,-977.38 187.38,-977.38 187.38,-974.73 221.67,-972.57 263.89,-972.57 306.11,-972.57 340.4,-974.73 340.4,-977.38 340.4,-977.38 340.4,-1020.72 340.4,-1020.72"/>
<path fill="none" stroke="#344054" stroke-width="1.2" d="M340.4,-1020.72C340.4,-1018.06 306.11,-1015.9 263.89,-1015.9 221.67,-1015.9 187.38,-1018.06 187.38,-1020.72"/>
<text xml:space="preserve" text-anchor="middle" x="263.89" y="-1002.1" font-family="Inter,Arial,sans-serif" font-size="11.00">output/events_clean.parquet</text>
<text xml:space="preserve" text-anchor="middle" x="263.89" y="-988.6" font-family="Inter,Arial,sans-serif" font-size="11.00">train + val sessions</text>
</g>
<!-- preprocess&#45;&gt;clean -->
<g id="edge8" class="edge">
<title>preprocess&#45;&gt;clean</title>
<path fill="none" stroke="#475467" stroke-width="1.1" d="M471.82,-1079.98C428.95,-1063.5 377.33,-1043.66 336.25,-1027.87"/>
<polygon fill="#475467" stroke="#475467" stroke-width="1.1" points="337.41,-1025.5 329.47,-1025.26 335.53,-1030.4 337.41,-1025.5"/>
</g>
<!-- test -->
<g id="node7" class="node">
<title>test</title>
<path fill="#fee4e2" stroke="#344054" stroke-width="1.2" d="M1192.28,-940.75C1192.28,-943.41 1159.83,-945.57 1119.89,-945.57 1079.95,-945.57 1047.5,-943.41 1047.5,-940.75 1047.5,-940.75 1047.5,-897.42 1047.5,-897.42 1047.5,-894.76 1079.95,-892.6 1119.89,-892.6 1159.83,-892.6 1192.28,-894.76 1192.28,-897.42 1192.28,-897.42 1192.28,-940.75 1192.28,-940.75"/>
<path fill="none" stroke="#344054" stroke-width="1.2" d="M1192.28,-940.75C1192.28,-938.1 1159.83,-935.94 1119.89,-935.94 1079.95,-935.94 1047.5,-938.1 1047.5,-940.75"/>
<text xml:space="preserve" text-anchor="middle" x="1119.89" y="-922.14" font-family="Inter,Arial,sans-serif" font-size="11.00">output/events_test.parquet</text>
<text xml:space="preserve" text-anchor="middle" x="1119.89" y="-908.64" font-family="Inter,Arial,sans-serif" font-size="11.00">locked final test split</text>
</g>
<!-- preprocess&#45;&gt;test -->
<g id="edge9" class="edge">
<title>preprocess&#45;&gt;test</title>
<path fill="none" stroke="#475467" stroke-width="1.1" d="M649.66,-1080.34C759.18,-1043.01 938.43,-981.93 1041.09,-946.94"/>
<polygon fill="#475467" stroke="#475467" stroke-width="1.1" points="1041.73,-949.5 1047.98,-944.59 1040.04,-944.53 1041.73,-949.5"/>
</g>
<!-- svdpq -->
<g id="node9" class="node">
<title>svdpq</title>
<path fill="#e0f2fe" stroke="#344054" stroke-width="1.2" d="M316.78,-858.85C316.78,-858.85 211,-858.85 211,-858.85 205,-858.85 199,-852.85 199,-846.85 199,-846.85 199,-832.33 199,-832.33 199,-826.33 205,-820.33 211,-820.33 211,-820.33 316.78,-820.33 316.78,-820.33 322.78,-820.33 328.78,-826.33 328.78,-832.33 328.78,-832.33 328.78,-846.85 328.78,-846.85 328.78,-852.85 322.78,-858.85 316.78,-858.85"/>
<text xml:space="preserve" text-anchor="middle" x="263.89" y="-842.64" font-family="Inter,Arial,sans-serif" font-size="11.00">ingestion/svdpq.py</text>
<text xml:space="preserve" text-anchor="middle" x="263.89" y="-829.14" font-family="Inter,Arial,sans-serif" font-size="11.00">SVD&#45;PQ item tokenizer</text>
</g>
<!-- preprocess&#45;&gt;svdpq -->
<g id="edge2" class="edge">
<title>preprocess&#45;&gt;svdpq</title>
<path fill="none" stroke="#475467" stroke-width="1.1" d="M526.95,-1080.35C471.76,-1019.42 356.89,-892.6 356.89,-892.6 356.89,-892.6 330.19,-877.68 305.41,-863.81"/>
<polygon fill="#475467" stroke="#475467" stroke-width="1.1" points="306.75,-861.55 298.92,-860.18 304.18,-866.14 306.75,-861.55"/>
<text xml:space="preserve" text-anchor="middle" x="488.99" y="-995.55" font-family="Inter,Arial,sans-serif" font-size="10.00">stage</text>
</g>
<!-- caches -->
<g id="node10" class="node">
<title>caches</title>
<polygon fill="#f2f4f7" stroke="#344054" stroke-width="1.2" points="506.65,-747.58 503.65,-751.58 482.65,-751.58 479.65,-747.58 301.12,-747.58 301.12,-682.06 506.65,-682.06 506.65,-747.58"/>
<text xml:space="preserve" text-anchor="middle" x="403.89" y="-731.37" font-family="Inter,Arial,sans-serif" font-size="11.00">output cache artifacts</text>
<text xml:space="preserve" text-anchor="middle" x="403.89" y="-717.87" font-family="Inter,Arial,sans-serif" font-size="11.00">sku2idx, vocab_stats, cat2idx,</text>
<text xml:space="preserve" text-anchor="middle" x="403.89" y="-704.37" font-family="Inter,Arial,sans-serif" font-size="11.00">cat pools, SKU props, SVD&#45;PQ tokens,</text>
<text xml:space="preserve" text-anchor="middle" x="403.89" y="-690.87" font-family="Inter,Arial,sans-serif" font-size="11.00">ReferenceStores, session_cache_*</text>
</g>
<!-- preprocess&#45;&gt;caches -->
<g id="edge10" class="edge">
<title>preprocess&#45;&gt;caches</title>
<path fill="none" stroke="#475467" stroke-width="1.1" d="M559.16,-1080.04C565.93,-1013.18 580.89,-865.6 580.89,-865.6 580.89,-865.6 580.89,-813.58 580.89,-813.58 580.89,-813.58 520.52,-780.24 470.3,-752.5"/>
<polygon fill="#475467" stroke="#475467" stroke-width="1.1" points="471.63,-750.24 463.79,-748.91 469.09,-754.84 471.63,-750.24"/>
<text xml:space="preserve" text-anchor="middle" x="593.85" y="-915.59" font-family="Inter,Arial,sans-serif" font-size="10.00">cat2idx</text>
</g>
<!-- dataset -->
<g id="node8" class="node">
<title>dataset</title>
<path fill="#f0f9ff" stroke="#344054" stroke-width="1.2" d="M553.28,-865.6C553.28,-865.6 372.5,-865.6 372.5,-865.6 366.5,-865.6 360.5,-859.6 360.5,-853.6 360.5,-853.6 360.5,-825.58 360.5,-825.58 360.5,-819.58 366.5,-813.58 372.5,-813.58 372.5,-813.58 553.28,-813.58 553.28,-813.58 559.28,-813.58 565.28,-819.58 565.28,-825.58 565.28,-825.58 565.28,-853.6 565.28,-853.6 565.28,-859.6 559.28,-865.6 553.28,-865.6"/>
<text xml:space="preserve" text-anchor="middle" x="462.89" y="-849.39" font-family="Inter,Arial,sans-serif" font-size="11.00">ingestion/dataset.py</text>
<text xml:space="preserve" text-anchor="middle" x="462.89" y="-835.89" font-family="Inter,Arial,sans-serif" font-size="11.00">SessionDataset + InteractionGenerator</text>
<text xml:space="preserve" text-anchor="middle" x="462.89" y="-822.39" font-family="Inter,Arial,sans-serif" font-size="11.00">SKU/category/property/session caches</text>
</g>
<!-- clean&#45;&gt;dataset -->
<g id="edge11" class="edge">
<title>clean&#45;&gt;dataset</title>
<path fill="none" stroke="#475467" stroke-width="1.1" d="M309.57,-972.27C333.09,-959 356.89,-945.57 356.89,-945.57 356.89,-945.57 399.57,-903.3 430.77,-872.41"/>
<polygon fill="#475467" stroke="#475467" stroke-width="1.1" points="432.57,-874.32 436.05,-867.18 428.87,-870.59 432.57,-874.32"/>
</g>
<!-- clean&#45;&gt;svdpq -->
<g id="edge14" class="edge">
<title>clean&#45;&gt;svdpq</title>
<path fill="none" stroke="#475467" stroke-width="1.1" d="M263.89,-972.05C263.89,-943.36 263.89,-897.38 263.89,-868.1"/>
<polygon fill="#475467" stroke="#475467" stroke-width="1.1" points="266.52,-868.39 263.89,-860.89 261.27,-868.39 266.52,-868.39"/>
<text xml:space="preserve" text-anchor="middle" x="306.26" y="-915.59" font-family="Inter,Arial,sans-serif" font-size="10.00">training interactions</text>
</g>
<!-- evaluate -->
<g id="node14" class="node">
<title>evaluate</title>
<path fill="#e0f2fe" stroke="#344054" stroke-width="1.2" d="M1022.28,-373.27C1022.28,-373.27 901.5,-373.27 901.5,-373.27 895.5,-373.27 889.5,-367.27 889.5,-361.27 889.5,-361.27 889.5,-346.75 889.5,-346.75 889.5,-340.75 895.5,-334.75 901.5,-334.75 901.5,-334.75 1022.28,-334.75 1022.28,-334.75 1028.28,-334.75 1034.28,-340.75 1034.28,-346.75 1034.28,-346.75 1034.28,-361.27 1034.28,-361.27 1034.28,-367.27 1028.28,-373.27 1022.28,-373.27"/>
<text xml:space="preserve" text-anchor="middle" x="961.89" y="-357.06" font-family="Inter,Arial,sans-serif" font-size="11.00">evaluate.py</text>
<text xml:space="preserve" text-anchor="middle" x="961.89" y="-343.56" font-family="Inter,Arial,sans-serif" font-size="11.00">full / fidelity&#45;only evaluation</text>
</g>
<!-- clean&#45;&gt;evaluate -->
<g id="edge20" class="edge">
<title>clean&#45;&gt;evaluate</title>
<path fill="none" stroke="#475467" stroke-width="1.1" d="M245.07,-972.05C212.69,-927.33 149.89,-840.59 149.89,-840.59 149.89,-840.59 149.89,-840.59 149.89,-471.03 149.89,-471.03 240.89,-446.02 240.89,-446.02 240.89,-446.02 452.89,-407.02 452.89,-407.02 452.89,-407.02 736.23,-378.07 880.11,-363.37"/>
<polygon fill="#475467" stroke="#475467" stroke-width="1.1" points="880.11,-366.01 887.31,-362.64 879.58,-360.79 880.11,-366.01"/>
</g>
<!-- ingestion -->
<g id="node21" class="node">
<title>ingestion</title>
<path fill="#e0f2fe" stroke="#344054" stroke-width="1.2" d="M207.78,-157.48C207.78,-157.48 12,-157.48 12,-157.48 6,-157.48 0,-151.48 0,-145.48 0,-145.48 0,-130.97 0,-130.97 0,-124.97 6,-118.97 12,-118.97 12,-118.97 207.78,-118.97 207.78,-118.97 213.78,-118.97 219.78,-124.97 219.78,-130.97 219.78,-130.97 219.78,-145.48 219.78,-145.48 219.78,-151.48 213.78,-157.48 207.78,-157.48"/>
<text xml:space="preserve" text-anchor="middle" x="109.89" y="-141.28" font-family="Inter,Arial,sans-serif" font-size="11.00">ingestion/ingestor.py + uploader.py</text>
<text xml:space="preserve" text-anchor="middle" x="109.89" y="-127.77" font-family="Inter,Arial,sans-serif" font-size="11.00">MongoDB real ingest and synthetic upload</text>
</g>
<!-- clean&#45;&gt;ingestion -->
<g id="edge32" class="edge">
<title>clean&#45;&gt;ingestion</title>
<path fill="none" stroke="#475467" stroke-width="1.1" d="M223.37,-972.12C202.71,-958.9 181.89,-945.57 181.89,-945.57 181.89,-945.57 82.89,-840.59 82.89,-840.59 82.89,-840.59 82.89,-840.59 82.89,-241.74 82.89,-241.74 94.7,-196.91 102.7,-166.54"/>
<polygon fill="#475467" stroke="#475467" stroke-width="1.1" points="105.14,-167.56 104.51,-159.64 100.07,-166.22 105.14,-167.56"/>
<text xml:space="preserve" text-anchor="middle" x="105.39" y="-527.54" font-family="Inter,Arial,sans-serif" font-size="10.00">real ingest</text>
</g>
<!-- test&#45;&gt;evaluate -->
<g id="edge21" class="edge">
<title>test&#45;&gt;evaluate</title>
<path fill="none" stroke="#475467" stroke-width="1.1" d="M1189.5,-894.15C1303.35,-855.01 1516.89,-781.58 1516.89,-781.58 1516.89,-781.58 1516.89,-781.58 1516.89,-471.03 1516.89,-471.03 1295.89,-407.02 1295.89,-407.02 1295.89,-407.02 1142.45,-383.13 1043.57,-367.73"/>
<polygon fill="#475467" stroke="#475467" stroke-width="1.1" points="1044.23,-365.18 1036.42,-366.62 1043.43,-370.37 1044.23,-365.18"/>
<text xml:space="preserve" text-anchor="middle" x="1539.39" y="-645.56" font-family="Inter,Arial,sans-serif" font-size="10.00">&#45;&#45;final only</text>
</g>
<!-- dataset&#45;&gt;caches -->
<g id="edge12" class="edge">
<title>dataset&#45;&gt;caches</title>
<path fill="none" stroke="#475467" stroke-width="1.1" d="M446.87,-805.26C439.55,-790.03 430.83,-771.88 423.16,-755.91"/>
<polygon fill="#475467" stroke="#475467" stroke-width="1.1" points="444.33,-806.03 449.94,-811.66 449.06,-803.76 444.33,-806.03"/>
<polygon fill="#475467" stroke="#475467" stroke-width="1.1" points="425.59,-754.92 419.97,-749.29 420.86,-757.19 425.59,-754.92"/>
<text xml:space="preserve" text-anchor="middle" x="457.55" y="-777.08" font-family="Inter,Arial,sans-serif" font-size="10.00">load/build</text>
</g>
<!-- train -->
<g id="node11" class="node">
<title>train</title>
<path fill="#e0f2fe" stroke="#344054" stroke-width="1.2" d="M604.65,-616.06C604.65,-616.06 435.12,-616.06 435.12,-616.06 429.12,-616.06 423.12,-610.06 423.12,-604.06 423.12,-604.06 423.12,-576.04 423.12,-576.04 423.12,-570.04 429.12,-564.04 435.12,-564.04 435.12,-564.04 604.65,-564.04 604.65,-564.04 610.65,-564.04 616.65,-570.04 616.65,-576.04 616.65,-576.04 616.65,-604.06 616.65,-604.06 616.65,-610.06 610.65,-616.06 604.65,-616.06"/>
<text xml:space="preserve" text-anchor="middle" x="519.89" y="-599.85" font-family="Inter,Arial,sans-serif" font-size="11.00">train.py</text>
<text xml:space="preserve" text-anchor="middle" x="519.89" y="-586.35" font-family="Inter,Arial,sans-serif" font-size="11.00">SessionTransformer training</text>
<text xml:space="preserve" text-anchor="middle" x="519.89" y="-572.85" font-family="Inter,Arial,sans-serif" font-size="11.00">checkpoint and model.yaml snapshot</text>
</g>
<!-- dataset&#45;&gt;train -->
<g id="edge13" class="edge">
<title>dataset&#45;&gt;train</title>
<path fill="none" stroke="#475467" stroke-width="1.1" d="M479.6,-813.24C497.36,-786.31 522.89,-747.58 522.89,-747.58 522.89,-747.58 522.89,-682.06 522.89,-682.06 522.89,-682.06 521.87,-651.07 521.02,-625.26"/>
<polygon fill="#475467" stroke="#475467" stroke-width="1.1" points="523.65,-625.48 520.78,-618.07 518.4,-625.65 523.65,-625.48"/>
<text xml:space="preserve" text-anchor="middle" x="540.14" y="-711.32" font-family="Inter,Arial,sans-serif" font-size="10.00">batches</text>
</g>
<!-- svdpq&#45;&gt;caches -->
<g id="edge15" class="edge">
<title>svdpq&#45;&gt;caches</title>
<path fill="none" stroke="#475467" stroke-width="1.1" d="M285.15,-819.95C305.1,-802.46 335.51,-775.79 360.57,-753.81"/>
<polygon fill="#475467" stroke="#475467" stroke-width="1.1" points="361.99,-756.06 365.89,-749.14 358.53,-752.12 361.99,-756.06"/>
<text xml:space="preserve" text-anchor="middle" x="367.64" y="-777.08" font-family="Inter,Arial,sans-serif" font-size="10.00">sku_tokens_vK</text>
</g>
<!-- svdpq&#45;&gt;train -->
<g id="edge3" class="edge">
<title>svdpq&#45;&gt;train</title>
<path fill="none" stroke="#475467" stroke-width="1.1" d="M263.27,-819.74C262.39,-793.08 260.89,-747.58 260.89,-747.58 260.89,-747.58 260.89,-682.06 260.89,-682.06 260.89,-682.06 362.88,-646.23 438.86,-619.53"/>
<polygon fill="#475467" stroke="#475467" stroke-width="1.1" points="439.28,-622.16 445.48,-617.2 437.54,-617.21 439.28,-622.16"/>
<text xml:space="preserve" text-anchor="middle" x="272.89" y="-711.32" font-family="Inter,Arial,sans-serif" font-size="10.00">stage</text>
</g>
<!-- caches&#45;&gt;train -->
<g id="edge16" class="edge">
<title>caches&#45;&gt;train</title>
<path fill="none" stroke="#475467" stroke-width="1.1" d="M434.37,-681.57C451.47,-663.47 472.72,-640.98 489.76,-622.94"/>
<polygon fill="#475467" stroke="#475467" stroke-width="1.1" points="491.45,-624.98 494.69,-617.73 487.63,-621.38 491.45,-624.98"/>
</g>
<!-- caches&#45;&gt;evaluate -->
<g id="edge22" class="edge">
<title>caches&#45;&gt;evaluate</title>
<path fill="none" stroke="#475467" stroke-width="1.1" d="M380.68,-681.52C337.45,-621.33 248.89,-498.04 248.89,-498.04 248.89,-498.04 248.89,-446.02 248.89,-446.02 248.89,-446.02 692.57,-389.39 879.94,-365.48"/>
<polygon fill="#475467" stroke="#475467" stroke-width="1.1" points="880.18,-368.09 887.29,-364.54 879.51,-362.88 880.18,-368.09"/>
</g>
<!-- simulation -->
<g id="node20" class="node">
<title>simulation</title>
<path fill="#e0f2fe" stroke="#344054" stroke-width="1.2" d="M1407.78,-380.02C1407.78,-380.02 1254,-380.02 1254,-380.02 1248,-380.02 1242,-374.02 1242,-368.02 1242,-368.02 1242,-340 1242,-340 1242,-334 1248,-328 1254,-328 1254,-328 1407.78,-328 1407.78,-328 1413.78,-328 1419.78,-334 1419.78,-340 1419.78,-340 1419.78,-368.02 1419.78,-368.02 1419.78,-374.02 1413.78,-380.02 1407.78,-380.02"/>
<text xml:space="preserve" text-anchor="middle" x="1330.89" y="-363.81" font-family="Inter,Arial,sans-serif" font-size="11.00">simulation/orchestrator.py</text>
<text xml:space="preserve" text-anchor="middle" x="1330.89" y="-350.31" font-family="Inter,Arial,sans-serif" font-size="11.00">long&#45;run synthetic batch simulator</text>
<text xml:space="preserve" text-anchor="middle" x="1330.89" y="-336.81" font-family="Inter,Arial,sans-serif" font-size="11.00">arrival + identity + generation</text>
</g>
<!-- caches&#45;&gt;simulation -->
<g id="edge30" class="edge">
<title>caches&#45;&gt;simulation</title>
<path fill="none" stroke="#475467" stroke-width="1.1" d="M506.91,-684.35C511.9,-682.92 514.89,-682.06 514.89,-682.06 514.89,-682.06 1378.89,-498.04 1378.89,-498.04 1378.89,-498.04 1378.89,-446.02 1378.89,-446.02 1378.89,-446.02 1362.11,-414.22 1348.4,-388.21"/>
<polygon fill="#475467" stroke="#475467" stroke-width="1.1" points="1350.86,-387.25 1345.04,-381.84 1346.21,-389.7 1350.86,-387.25"/>
<text xml:space="preserve" text-anchor="middle" x="1289.23" y="-527.54" font-family="Inter,Arial,sans-serif" font-size="10.00">legal bigrams / refs</text>
</g>
<!-- wandb -->
<g id="node12" class="node">
<title>wandb</title>
<path fill="#f5f3ff" stroke="#344054" stroke-width="1.2" d="M396.9,-491.29C396.9,-491.29 276.88,-491.29 276.88,-491.29 270.88,-491.29 264.88,-485.29 264.88,-479.29 264.88,-479.29 264.88,-464.77 264.88,-464.77 264.88,-458.77 270.88,-452.77 276.88,-452.77 276.88,-452.77 396.9,-452.77 396.9,-452.77 402.9,-452.77 408.9,-458.77 408.9,-464.77 408.9,-464.77 408.9,-479.29 408.9,-479.29 408.9,-485.29 402.9,-491.29 396.9,-491.29"/>
<text xml:space="preserve" text-anchor="middle" x="336.89" y="-475.08" font-family="Inter,Arial,sans-serif" font-size="11.00">W&amp;B project</text>
<text xml:space="preserve" text-anchor="middle" x="336.89" y="-461.58" font-family="Inter,Arial,sans-serif" font-size="11.00">thesis&#45;session&#45;transformer</text>
</g>
<!-- train&#45;&gt;wandb -->
<g id="edge18" class="edge">
<title>train&#45;&gt;wandb</title>
<path fill="none" stroke="#7c3aed" stroke-width="1.1" stroke-dasharray="5,2" d="M479.73,-563.59C448.21,-543.61 404.66,-516 373.96,-496.54"/>
<polygon fill="#7c3aed" stroke="#7c3aed" stroke-width="1.1" points="375.6,-494.47 367.86,-492.67 372.79,-498.9 375.6,-494.47"/>
<text xml:space="preserve" text-anchor="middle" x="450" y="-527.54" font-family="Inter,Arial,sans-serif" font-size="10.00">metrics</text>
</g>
<!-- models -->
<g id="node13" class="node">
<title>models</title>
<polygon fill="#f2f4f7" stroke="#344054" stroke-width="1.2" points="1363.15,-498.04 1360.15,-502.04 1339.15,-502.04 1336.15,-498.04 1166.62,-498.04 1166.62,-446.02 1363.15,-446.02 1363.15,-498.04"/>
<text xml:space="preserve" text-anchor="middle" x="1264.89" y="-481.83" font-family="Inter,Arial,sans-serif" font-size="11.00">output/models/**</text>
<text xml:space="preserve" text-anchor="middle" x="1264.89" y="-468.33" font-family="Inter,Arial,sans-serif" font-size="11.00">SessionTransformer, identity sampler,</text>
<text xml:space="preserve" text-anchor="middle" x="1264.89" y="-454.83" font-family="Inter,Arial,sans-serif" font-size="11.00">GRU4Rec checkpoints</text>
</g>
<!-- train&#45;&gt;models -->
<g id="edge17" class="edge">
<title>train&#45;&gt;models</title>
<path fill="none" stroke="#475467" stroke-width="1.1" d="M617.16,-580.84C790.74,-566.19 1135.89,-537.04 1135.89,-537.04 1135.89,-537.04 1171.61,-519.32 1205.45,-502.53"/>
<polygon fill="#475467" stroke="#475467" stroke-width="1.1" points="1206.49,-504.94 1212.04,-499.26 1204.16,-500.24 1206.49,-504.94"/>
</g>
<!-- train&#45;&gt;evaluate -->
<g id="edge4" class="edge">
<title>train&#45;&gt;evaluate</title>
<path fill="none" stroke="#475467" stroke-width="1.1" d="M616.97,-572.78C773.15,-546.61 1062.89,-498.04 1062.89,-498.04 1062.89,-498.04 1064.89,-419.02 1064.89,-419.02 1064.89,-419.02 1064.89,-407.02 1064.89,-407.02 1064.89,-407.02 1034.81,-391.84 1007.16,-377.87"/>
<polygon fill="#475467" stroke="#475467" stroke-width="1.1" points="1008.44,-375.58 1000.56,-374.54 1006.07,-380.27 1008.44,-375.58"/>
<text xml:space="preserve" text-anchor="middle" x="1076.19" y="-468.53" font-family="Inter,Arial,sans-serif" font-size="10.00">stage</text>
</g>
<!-- models&#45;&gt;evaluate -->
<g id="edge19" class="edge">
<title>models&#45;&gt;evaluate</title>
<path fill="none" stroke="#475467" stroke-width="1.1" d="M1267.82,-445.64C1269.34,-432.44 1270.89,-419.02 1270.89,-419.02 1270.89,-419.02 1270.89,-407.02 1270.89,-407.02 1270.89,-407.02 1135.26,-384.2 1043.72,-368.79"/>
<polygon fill="#475467" stroke="#475467" stroke-width="1.1" points="1044.2,-366.21 1036.37,-367.55 1043.33,-371.38 1044.2,-366.21"/>
</g>
<!-- models&#45;&gt;simulation -->
<g id="edge29" class="edge">
<title>models&#45;&gt;simulation</title>
<path fill="none" stroke="#475467" stroke-width="1.1" d="M1286.86,-445.64C1298.29,-432.44 1309.89,-419.02 1309.89,-419.02 1309.89,-419.02 1314.75,-404.2 1319.8,-388.82"/>
<polygon fill="#475467" stroke="#475467" stroke-width="1.1" points="1322.23,-389.84 1322.07,-381.9 1317.24,-388.2 1322.23,-389.84"/>
</g>
<!-- evaluate&#45;&gt;models -->
<g id="edge28" class="edge">
<title>evaluate&#45;&gt;models</title>
<path fill="none" stroke="#475467" stroke-width="1.1" d="M1016.4,-373.79C1059.66,-388.69 1112.89,-407.02 1112.89,-407.02 1112.89,-407.02 1155.87,-425.12 1196.11,-442.07"/>
<polygon fill="#475467" stroke="#475467" stroke-width="1.1" points="1194.91,-444.41 1202.84,-444.91 1196.95,-439.58 1194.91,-444.41"/>
<text xml:space="preserve" text-anchor="middle" x="1198.75" y="-409.52" font-family="Inter,Arial,sans-serif" font-size="10.00">identity sampler, GRU4Rec</text>
</g>
<!-- reports -->
<g id="node18" class="node">
<title>reports</title>
<polygon fill="#fef3c7" stroke="#344054" stroke-width="1.2" points="949.28,-262 946.28,-266 925.28,-266 922.28,-262 744.5,-262 744.5,-223.48 949.28,-223.48 949.28,-262"/>
<text xml:space="preserve" text-anchor="middle" x="846.89" y="-245.8" font-family="Inter,Arial,sans-serif" font-size="11.00">output/models/&lt;eval_model&gt;/reports/**</text>
<text xml:space="preserve" text-anchor="middle" x="846.89" y="-232.3" font-family="Inter,Arial,sans-serif" font-size="11.00">HTML + JSON</text>
</g>
<!-- evaluate&#45;&gt;reports -->
<g id="edge26" class="edge">
<title>evaluate&#45;&gt;reports</title>
<path fill="none" stroke="#475467" stroke-width="1.1" d="M942.12,-334.23C923,-316.06 893.91,-288.42 872.91,-268.47"/>
<polygon fill="#475467" stroke="#475467" stroke-width="1.1" points="874.85,-266.69 867.61,-263.43 871.24,-270.5 874.85,-266.69"/>
</g>
<!-- synth -->
<g id="node19" class="node">
<title>synth</title>
<polygon fill="#f2f4f7" stroke="#344054" stroke-width="1.2" points="1172.53,-262 1169.53,-266 1148.53,-266 1145.53,-262 981.25,-262 981.25,-223.48 1172.53,-223.48 1172.53,-262"/>
<text xml:space="preserve" text-anchor="middle" x="1076.89" y="-245.8" font-family="Inter,Arial,sans-serif" font-size="11.00">output/synthetic/**</text>
<text xml:space="preserve" text-anchor="middle" x="1076.89" y="-232.3" font-family="Inter,Arial,sans-serif" font-size="11.00">seed outputs and simulation batches</text>
</g>
<!-- evaluate&#45;&gt;synth -->
<g id="edge27" class="edge">
<title>evaluate&#45;&gt;synth</title>
<path fill="none" stroke="#475467" stroke-width="1.1" d="M981.66,-334.23C1000.78,-316.06 1029.87,-288.42 1050.87,-268.47"/>
<polygon fill="#475467" stroke="#475467" stroke-width="1.1" points="1052.54,-270.5 1056.17,-263.43 1048.93,-266.69 1052.54,-270.5"/>
</g>
<!-- generator -->
<g id="node15" class="node">
<title>generator</title>
<path fill="#f0f9ff" stroke="#344054" stroke-width="1.2" d="M642.78,-498.04C642.78,-498.04 453,-498.04 453,-498.04 447,-498.04 441,-492.04 441,-486.04 441,-486.04 441,-458.02 441,-458.02 441,-452.02 447,-446.02 453,-446.02 453,-446.02 642.78,-446.02 642.78,-446.02 648.78,-446.02 654.78,-452.02 654.78,-458.02 654.78,-458.02 654.78,-486.04 654.78,-486.04 654.78,-492.04 648.78,-498.04 642.78,-498.04"/>
<text xml:space="preserve" text-anchor="middle" x="547.89" y="-481.83" font-family="Inter,Arial,sans-serif" font-size="11.00">simulation/generator/*</text>
<text xml:space="preserve" text-anchor="middle" x="547.89" y="-468.33" font-family="Inter,Arial,sans-serif" font-size="11.00">SessionGenerator + SessionTransformer</text>
<text xml:space="preserve" text-anchor="middle" x="547.89" y="-454.83" font-family="Inter,Arial,sans-serif" font-size="11.00">heads + cross&#45;session history</text>
</g>
<!-- generator&#45;&gt;evaluate -->
<g id="edge23" class="edge">
<title>generator&#45;&gt;evaluate</title>
<path fill="none" stroke="#475467" stroke-width="1.1" stroke-dasharray="5,2" d="M638.29,-445.46C701.3,-427.63 774.14,-407.02 774.14,-407.02 774.14,-407.02 833.34,-390.63 885.25,-376.25"/>
<polygon fill="#475467" stroke="#475467" stroke-width="1.1" points="885.71,-378.84 892.24,-374.31 884.31,-373.78 885.71,-378.84"/>
<text xml:space="preserve" text-anchor="middle" x="812.01" y="-409.52" font-family="Inter,Arial,sans-serif" font-size="10.00">primary generator</text>
</g>
<!-- identity -->
<g id="node16" class="node">
<title>identity</title>
<path fill="#f0f9ff" stroke="#344054" stroke-width="1.2" d="M833.4,-498.04C833.4,-498.04 698.38,-498.04 698.38,-498.04 692.38,-498.04 686.38,-492.04 686.38,-486.04 686.38,-486.04 686.38,-458.02 686.38,-458.02 686.38,-452.02 692.38,-446.02 698.38,-446.02 698.38,-446.02 833.4,-446.02 833.4,-446.02 839.4,-446.02 845.4,-452.02 845.4,-458.02 845.4,-458.02 845.4,-486.04 845.4,-486.04 845.4,-492.04 839.4,-498.04 833.4,-498.04"/>
<text xml:space="preserve" text-anchor="middle" x="765.89" y="-481.83" font-family="Inter,Arial,sans-serif" font-size="11.00">simulation/identity/*</text>
<text xml:space="preserve" text-anchor="middle" x="765.89" y="-468.33" font-family="Inter,Arial,sans-serif" font-size="11.00">CTGAN IdentityFactory</text>
<text xml:space="preserve" text-anchor="middle" x="765.89" y="-454.83" font-family="Inter,Arial,sans-serif" font-size="11.00">SimpleIdentitySampler legacy</text>
</g>
<!-- identity&#45;&gt;evaluate -->
<g id="edge24" class="edge">
<title>identity&#45;&gt;evaluate</title>
<path fill="none" stroke="#475467" stroke-width="1.1" stroke-dasharray="5,2" d="M808.9,-445.57C842.81,-425.5 889.7,-397.75 922.6,-378.27"/>
<polygon fill="#475467" stroke="#475467" stroke-width="1.1" points="923.68,-380.68 928.8,-374.6 921.01,-376.17 923.68,-380.68"/>
<text xml:space="preserve" text-anchor="middle" x="904.27" y="-409.52" font-family="Inter,Arial,sans-serif" font-size="10.00">identity sampler</text>
</g>
<!-- evaluation -->
<g id="node17" class="node">
<title>evaluation</title>
<path fill="#f0f9ff" stroke="#344054" stroke-width="1.2" d="M1034.65,-498.04C1034.65,-498.04 889.12,-498.04 889.12,-498.04 883.12,-498.04 877.12,-492.04 877.12,-486.04 877.12,-486.04 877.12,-458.02 877.12,-458.02 877.12,-452.02 883.12,-446.02 889.12,-446.02 889.12,-446.02 1034.65,-446.02 1034.65,-446.02 1040.65,-446.02 1046.65,-452.02 1046.65,-458.02 1046.65,-458.02 1046.65,-486.04 1046.65,-486.04 1046.65,-492.04 1040.65,-498.04 1034.65,-498.04"/>
<text xml:space="preserve" text-anchor="middle" x="961.89" y="-481.83" font-family="Inter,Arial,sans-serif" font-size="11.00">evaluation/*</text>
<text xml:space="preserve" text-anchor="middle" x="961.89" y="-468.33" font-family="Inter,Arial,sans-serif" font-size="11.00">reference, fidelity, validity,</text>
<text xml:space="preserve" text-anchor="middle" x="961.89" y="-454.83" font-family="Inter,Arial,sans-serif" font-size="11.00">downstream GRU4Rec, reports</text>
</g>
<!-- evaluation&#45;&gt;evaluate -->
<g id="edge25" class="edge">
<title>evaluation&#45;&gt;evaluate</title>
<path fill="none" stroke="#475467" stroke-width="1.1" stroke-dasharray="5,2" d="M961.89,-445.57C961.89,-426.97 961.89,-401.77 961.89,-382.67"/>
<polygon fill="#475467" stroke="#475467" stroke-width="1.1" points="964.52,-382.74 961.89,-375.24 959.27,-382.74 964.52,-382.74"/>
<text xml:space="preserve" text-anchor="middle" x="1009.14" y="-409.52" font-family="Inter,Arial,sans-serif" font-size="10.00">metric/report modules</text>
</g>
<!-- synth&#45;&gt;ingestion -->
<g id="edge33" class="edge">
<title>synth&#45;&gt;ingestion</title>
<path fill="none" stroke="#475467" stroke-width="1.1" d="M980.94,-226.1C971.25,-224.52 964.89,-223.48 964.89,-223.48 964.89,-223.48 464.44,-174.17 229.29,-150.99"/>
<polygon fill="#475467" stroke="#475467" stroke-width="1.1" points="229.73,-148.4 222.01,-150.27 229.22,-153.62 229.73,-148.4"/>
<text xml:space="preserve" text-anchor="middle" x="721.34" y="-186.98" font-family="Inter,Arial,sans-serif" font-size="10.00">upload batches</text>
</g>
<!-- simulation&#45;&gt;synth -->
<g id="edge31" class="edge">
<title>simulation&#45;&gt;synth</title>
<path fill="none" stroke="#475467" stroke-width="1.1" d="M1271.66,-327.53C1228.46,-308.95 1170.46,-284 1129.02,-266.17"/>
<polygon fill="#475467" stroke="#475467" stroke-width="1.1" points="1130.15,-263.8 1122.23,-263.25 1128.08,-268.62 1130.15,-263.8"/>
<text xml:space="preserve" text-anchor="middle" x="1236.89" y="-291.5" font-family="Inter,Arial,sans-serif" font-size="10.00">batch Parquets</text>
</g>
<!-- mongo -->
<g id="node22" class="node">
<title>mongo</title>
<path fill="#ecfdf3" stroke="#344054" stroke-width="1.2" d="M189.78,-48.15C189.78,-50.81 153.97,-52.96 109.89,-52.96 65.81,-52.96 30,-50.81 30,-48.15 30,-48.15 30,-4.82 30,-4.82 30,-2.16 65.81,0 109.89,0 153.97,0 189.78,-2.16 189.78,-4.82 189.78,-4.82 189.78,-48.15 189.78,-48.15"/>
<path fill="none" stroke="#344054" stroke-width="1.2" d="M189.78,-48.15C189.78,-45.49 153.97,-43.33 109.89,-43.33 65.81,-43.33 30,-45.49 30,-48.15"/>
<text xml:space="preserve" text-anchor="middle" x="109.89" y="-29.53" font-family="Inter,Arial,sans-serif" font-size="11.00">MongoDB</text>
<text xml:space="preserve" text-anchor="middle" x="109.89" y="-16.03" font-family="Inter,Arial,sans-serif" font-size="11.00">real_* / synthetic_* collections</text>
</g>
<!-- ingestion&#45;&gt;mongo -->
<g id="edge34" class="edge">
<title>ingestion&#45;&gt;mongo</title>
<path fill="none" stroke="#475467" stroke-width="1.1" d="M109.89,-118.61C109.89,-103.23 109.89,-80.97 109.89,-62.3"/>
<polygon fill="#475467" stroke="#475467" stroke-width="1.1" points="112.52,-62.36 109.89,-54.86 107.27,-62.36 112.52,-62.36"/>
<text xml:space="preserve" text-anchor="middle" x="132.39" y="-82.47" font-family="Inter,Arial,sans-serif" font-size="10.00">bulk insert</text>
</g>
</g>
</svg>
