<?xml version="1.0" encoding="UTF-8" standalone="no"?>
<!DOCTYPE svg PUBLIC "-//W3C//DTD SVG 1.1//EN"
 "http://www.w3.org/Graphics/SVG/1.1/DTD/svg11.dtd">
<!-- Generated by graphviz version 14.1.5 (0)
 -->
<!-- Title: c4_component_training Pages: 1 -->
<svg width="2128pt" height="805pt"
 viewBox="13.00 13.00 2115.00 792.00" xmlns="http://www.w3.org/2000/svg" xmlns:xlink="http://www.w3.org/1999/xlink">
<g id="graph0" class="graph" transform="scale(1 1) rotate(0) translate(27.36 777.62)">
<title>c4_component_training</title>
<polygon fill="white" stroke="none" points="-14.4,14.4 -14.4,-764.66 2087.86,-764.66 2087.86,14.4 -14.4,14.4"/>
<text xml:space="preserve" text-anchor="middle" x="1036.73" y="-729.16" font-family="Inter,Arial,sans-serif" font-size="18.00">C4 Component View &#45; train.py and SessionTransformer Training</text>
<!-- train_cli -->
<g id="node1" class="node">
<title>train_cli</title>
<path fill="#dbeafe" stroke="#344054" stroke-width="2" d="M453.06,-576.27C453.06,-576.27 316.53,-576.27 316.53,-576.27 310.53,-576.27 304.53,-570.27 304.53,-564.27 304.53,-564.27 304.53,-536.25 304.53,-536.25 304.53,-530.25 310.53,-524.25 316.53,-524.25 316.53,-524.25 453.06,-524.25 453.06,-524.25 459.06,-524.25 465.06,-530.25 465.06,-536.25 465.06,-536.25 465.06,-564.27 465.06,-564.27 465.06,-570.27 459.06,-576.27 453.06,-576.27"/>
<text xml:space="preserve" text-anchor="middle" x="384.8" y="-560.06" font-family="Inter,Arial,sans-serif" font-size="11.00">train.py::train(comment)</text>
<text xml:space="preserve" text-anchor="middle" x="384.8" y="-546.56" font-family="Inter,Arial,sans-serif" font-size="11.00">create timestamped run folder</text>
<text xml:space="preserve" text-anchor="middle" x="384.8" y="-533.06" font-family="Inter,Arial,sans-serif" font-size="11.00">write output/models/.last_run</text>
</g>
<!-- wandb -->
<g id="node2" class="node">
<title>wandb</title>
<path fill="#f5f3ff" stroke="#344054" stroke-width="1.2" d="M1692.06,-460.52C1692.06,-460.52 1602.78,-460.52 1602.78,-460.52 1596.78,-460.52 1590.78,-454.52 1590.78,-448.52 1590.78,-448.52 1590.78,-434 1590.78,-434 1590.78,-428 1596.78,-422 1602.78,-422 1602.78,-422 1692.06,-422 1692.06,-422 1698.06,-422 1704.06,-428 1704.06,-434 1704.06,-434 1704.06,-448.52 1704.06,-448.52 1704.06,-454.52 1698.06,-460.52 1692.06,-460.52"/>
<text xml:space="preserve" text-anchor="middle" x="1647.42" y="-444.31" font-family="Inter,Arial,sans-serif" font-size="11.00">wandb.init + metrics</text>
<text xml:space="preserve" text-anchor="middle" x="1647.42" y="-430.81" font-family="Inter,Arial,sans-serif" font-size="11.00">train/* and val/*</text>
</g>
<!-- train_cli&#45;&gt;wandb -->
<g id="edge1" class="edge">
<title>train_cli&#45;&gt;wandb</title>
<path fill="none" stroke="#475467" stroke-width="1.1" d="M419.92,-576.98C481.35,-625.07 604.2,-721.26 604.2,-721.26 604.2,-721.26 604.2,-721.26 1289.14,-721.26 1289.14,-721.26 1383.4,-684.26 1383.4,-684.26 1383.4,-684.26 1551.2,-529.23 1618.74,-466.83"/>
<polygon fill="#475467" stroke="#475467" stroke-width="1.1" points="1620.39,-468.88 1624.11,-461.86 1616.82,-465.03 1620.39,-468.88"/>
</g>
<!-- train_gen -->
<g id="node3" class="node">
<title>train_gen</title>
<path fill="#e0f2fe" stroke="#344054" stroke-width="1.2" d="M678.34,-516.52C678.34,-516.52 532.06,-516.52 532.06,-516.52 526.06,-516.52 520.06,-510.52 520.06,-504.52 520.06,-504.52 520.06,-490 520.06,-490 520.06,-484 526.06,-478 532.06,-478 532.06,-478 678.34,-478 678.34,-478 684.34,-478 690.34,-484 690.34,-490 690.34,-490 690.34,-504.52 690.34,-504.52 690.34,-510.52 684.34,-516.52 678.34,-516.52"/>
<text xml:space="preserve" text-anchor="middle" x="605.2" y="-500.31" font-family="Inter,Arial,sans-serif" font-size="11.00">InteractionGenerator(split=train)</text>
<text xml:space="preserve" text-anchor="middle" x="605.2" y="-486.81" font-family="Inter,Arial,sans-serif" font-size="11.00">DataLoader batches</text>
</g>
<!-- train_cli&#45;&gt;train_gen -->
<g id="edge2" class="edge">
<title>train_cli&#45;&gt;train_gen</title>
<path fill="none" stroke="#475467" stroke-width="1.1" d="M465.88,-530.83C481.49,-527.04 497.96,-523.04 513.88,-519.18"/>
<polygon fill="#475467" stroke="#475467" stroke-width="1.1" points="514.37,-521.76 521.04,-517.44 513.14,-516.66 514.37,-521.76"/>
</g>
<!-- val_gen -->
<g id="node4" class="node">
<title>val_gen</title>
<path fill="#e0f2fe" stroke="#344054" stroke-width="1.2" d="M674.59,-445.52C674.59,-445.52 535.81,-445.52 535.81,-445.52 529.81,-445.52 523.81,-439.52 523.81,-433.52 523.81,-433.52 523.81,-419 523.81,-419 523.81,-413 529.81,-407 535.81,-407 535.81,-407 674.59,-407 674.59,-407 680.59,-407 686.59,-413 686.59,-419 686.59,-419 686.59,-433.52 686.59,-433.52 686.59,-439.52 680.59,-445.52 674.59,-445.52"/>
<text xml:space="preserve" text-anchor="middle" x="605.2" y="-429.31" font-family="Inter,Arial,sans-serif" font-size="11.00">InteractionGenerator(split=val)</text>
<text xml:space="preserve" text-anchor="middle" x="605.2" y="-415.81" font-family="Inter,Arial,sans-serif" font-size="11.00">full validation split</text>
</g>
<!-- train_cli&#45;&gt;val_gen -->
<g id="edge3" class="edge">
<title>train_cli&#45;&gt;val_gen</title>
<path fill="none" stroke="#475467" stroke-width="1.1" d="M426.81,-523.38C466.29,-497.5 520.06,-462.26 520.06,-462.26 520.06,-462.26 533.71,-456.42 550.02,-449.44"/>
<polygon fill="#475467" stroke="#475467" stroke-width="1.1" points="550.8,-451.96 556.66,-446.6 548.73,-447.14 550.8,-451.96"/>
</g>
<!-- model -->
<g id="node10" class="node">
<title>model</title>
<path fill="#d1e9ff" stroke="#344054" stroke-width="2" d="M1037.62,-271.27C1037.62,-271.27 856.09,-271.27 856.09,-271.27 850.09,-271.27 844.09,-265.27 844.09,-259.27 844.09,-259.27 844.09,-231.25 844.09,-231.25 844.09,-225.25 850.09,-219.25 856.09,-219.25 856.09,-219.25 1037.62,-219.25 1037.62,-219.25 1043.62,-219.25 1049.62,-225.25 1049.62,-231.25 1049.62,-231.25 1049.62,-259.27 1049.62,-259.27 1049.62,-265.27 1043.62,-271.27 1037.62,-271.27"/>
<text xml:space="preserve" text-anchor="middle" x="946.86" y="-255.06" font-family="Inter,Arial,sans-serif" font-size="11.00">SessionTransformer</text>
<text xml:space="preserve" text-anchor="middle" x="946.86" y="-241.56" font-family="Inter,Arial,sans-serif" font-size="11.00">input embedding sum + causal decoder</text>
<text xml:space="preserve" text-anchor="middle" x="946.86" y="-228.06" font-family="Inter,Arial,sans-serif" font-size="11.00">cross&#45;session history memory</text>
</g>
<!-- train_cli&#45;&gt;model -->
<g id="edge12" class="edge">
<title>train_cli&#45;&gt;model</title>
<path fill="none" stroke="#475467" stroke-width="1.1" d="M408.57,-523.29C446.88,-477.92 520.06,-391.26 520.06,-391.26 520.06,-391.26 734.27,-317.81 858.82,-275.1"/>
<polygon fill="#475467" stroke="#475467" stroke-width="1.1" points="859.44,-277.66 865.69,-272.75 857.74,-272.7 859.44,-277.66"/>
</g>
<!-- dataset -->
<g id="node5" class="node">
<title>dataset</title>
<path fill="#f0f9ff" stroke="#344054" stroke-width="1.2" d="M1022.25,-518.27C1022.25,-518.27 871.47,-518.27 871.47,-518.27 865.47,-518.27 859.47,-512.27 859.47,-506.27 859.47,-506.27 859.47,-478.25 859.47,-478.25 859.47,-472.25 865.47,-466.25 871.47,-466.25 871.47,-466.25 1022.25,-466.25 1022.25,-466.25 1028.25,-466.25 1034.25,-472.25 1034.25,-478.25 1034.25,-478.25 1034.25,-506.27 1034.25,-506.27 1034.25,-512.27 1028.25,-518.27 1022.25,-518.27"/>
<text xml:space="preserve" text-anchor="middle" x="946.86" y="-502.06" font-family="Inter,Arial,sans-serif" font-size="11.00">SessionDataset</text>
<text xml:space="preserve" text-anchor="middle" x="946.86" y="-488.56" font-family="Inter,Arial,sans-serif" font-size="11.00">session tensors: events, items,</text>
<text xml:space="preserve" text-anchor="middle" x="946.86" y="-475.06" font-family="Inter,Arial,sans-serif" font-size="11.00">deltas, categories, history, masks</text>
</g>
<!-- train_gen&#45;&gt;dataset -->
<g id="edge4" class="edge">
<title>train_gen&#45;&gt;dataset</title>
<path fill="none" stroke="#475467" stroke-width="1.1" d="M690.6,-496.02C738.97,-495.31 799.85,-494.41 850.02,-493.67"/>
<polygon fill="#475467" stroke="#475467" stroke-width="1.1" points="849.81,-496.3 857.27,-493.56 849.73,-491.05 849.81,-496.3"/>
</g>
<!-- train_gen&#45;&gt;model -->
<g id="edge17" class="edge">
<title>train_gen&#45;&gt;model</title>
<path fill="none" stroke="#475467" stroke-width="1.1" d="M652.21,-477.57C671.85,-469.17 690.34,-461.26 690.34,-461.26 690.34,-461.26 835.97,-338.15 907.34,-277.82"/>
<polygon fill="#475467" stroke="#475467" stroke-width="1.1" points="908.71,-280.1 912.74,-273.25 905.32,-276.09 908.71,-280.1"/>
<text xml:space="preserve" text-anchor="middle" x="767.22" y="-437" font-family="Inter,Arial,sans-serif" font-size="10.00">teacher&#45;forced batches</text>
</g>
<!-- val_gen&#45;&gt;dataset -->
<g id="edge5" class="edge">
<title>val_gen&#45;&gt;dataset</title>
<path fill="none" stroke="#475467" stroke-width="1.1" d="M687.12,-441.98C736.09,-451.5 798.79,-463.68 850.21,-473.67"/>
<polygon fill="#475467" stroke="#475467" stroke-width="1.1" points="849.51,-476.21 857.38,-475.07 850.52,-471.06 849.51,-476.21"/>
</g>
<!-- val_loop -->
<g id="node18" class="node">
<title>val_loop</title>
<path fill="#e0f2fe" stroke="#344054" stroke-width="1.2" d="M1361.28,-339.52C1361.28,-339.52 1215,-339.52 1215,-339.52 1209,-339.52 1203,-333.52 1203,-327.52 1203,-327.52 1203,-313 1203,-313 1203,-307 1209,-301 1215,-301 1215,-301 1361.28,-301 1361.28,-301 1367.28,-301 1373.28,-307 1373.28,-313 1373.28,-313 1373.28,-327.52 1373.28,-327.52 1373.28,-333.52 1367.28,-339.52 1361.28,-339.52"/>
<text xml:space="preserve" text-anchor="middle" x="1288.14" y="-323.31" font-family="Inter,Arial,sans-serif" font-size="11.00">Validation loop</text>
<text xml:space="preserve" text-anchor="middle" x="1288.14" y="-309.81" font-family="Inter,Arial,sans-serif" font-size="11.00">same masked losses on val split</text>
</g>
<!-- val_gen&#45;&gt;val_loop -->
<g id="edge23" class="edge">
<title>val_gen&#45;&gt;val_loop</title>
<path fill="none" stroke="#475467" stroke-width="1.1" d="M635.4,-406.55C668.33,-384.33 717.34,-351.26 717.34,-351.26 717.34,-351.26 1031.72,-334.16 1193.44,-325.36"/>
<polygon fill="#475467" stroke="#475467" stroke-width="1.1" points="1193.44,-327.99 1200.78,-324.96 1193.15,-322.74 1193.44,-327.99"/>
</g>
<!-- session_cache -->
<g id="node6" class="node">
<title>session_cache</title>
<polygon fill="#f2f4f7" stroke="#344054" stroke-width="1.2" points="1360.15,-507.52 1357.15,-511.52 1336.15,-511.52 1333.15,-507.52 1216.12,-507.52 1216.12,-469 1360.15,-469 1360.15,-507.52"/>
<text xml:space="preserve" text-anchor="middle" x="1288.14" y="-491.31" font-family="Inter,Arial,sans-serif" font-size="11.00">output/session_cache_*</text>
<text xml:space="preserve" text-anchor="middle" x="1288.14" y="-477.81" font-family="Inter,Arial,sans-serif" font-size="11.00">flat numpy arrays + offsets</text>
</g>
<!-- dataset&#45;&gt;session_cache -->
<g id="edge6" class="edge">
<title>dataset&#45;&gt;session_cache</title>
<path fill="none" stroke="#475467" stroke-width="1.1" d="M1043.76,-484.81C1062.57,-483.35 1076.62,-482.26 1076.62,-482.26 1076.62,-482.26 1165.87,-482.26 1165.87,-482.26 1165.87,-482.26 1184.12,-483.16 1206.46,-484.27"/>
<polygon fill="#475467" stroke="#475467" stroke-width="1.1" points="1043.75,-482.18 1036.47,-485.38 1044.15,-487.41 1043.75,-482.18"/>
<polygon fill="#475467" stroke="#475467" stroke-width="1.1" points="1206.26,-486.89 1213.88,-484.64 1206.52,-481.64 1206.26,-486.89"/>
<text xml:space="preserve" text-anchor="middle" x="1121.25" y="-484.76" font-family="Inter,Arial,sans-serif" font-size="10.00">load/build</text>
</g>
<!-- vocab -->
<g id="node7" class="node">
<title>vocab</title>
<polygon fill="#f2f4f7" stroke="#344054" stroke-width="1.2" points="1350.78,-592.27 1347.78,-596.27 1326.78,-596.27 1323.78,-592.27 1225.5,-592.27 1225.5,-540.25 1350.78,-540.25 1350.78,-592.27"/>
<text xml:space="preserve" text-anchor="middle" x="1288.14" y="-576.06" font-family="Inter,Arial,sans-serif" font-size="11.00">vocab artifacts</text>
<text xml:space="preserve" text-anchor="middle" x="1288.14" y="-562.56" font-family="Inter,Arial,sans-serif" font-size="11.00">sku2idx, vocab_stats,</text>
<text xml:space="preserve" text-anchor="middle" x="1288.14" y="-549.06" font-family="Inter,Arial,sans-serif" font-size="11.00">cat2idx, cat_sku_pools</text>
</g>
<!-- dataset&#45;&gt;vocab -->
<g id="edge7" class="edge">
<title>dataset&#45;&gt;vocab</title>
<path fill="none" stroke="#475467" stroke-width="1.1" d="M1043.61,-509.39C1102.15,-519.86 1165.87,-531.26 1165.87,-531.26 1165.87,-531.26 1189.79,-538.16 1216.38,-545.84"/>
<polygon fill="#475467" stroke="#475467" stroke-width="1.1" points="1044.13,-506.82 1036.29,-508.08 1043.21,-511.98 1044.13,-506.82"/>
<polygon fill="#475467" stroke="#475467" stroke-width="1.1" points="1215.55,-548.33 1223.48,-547.89 1217,-543.29 1215.55,-548.33"/>
<text xml:space="preserve" text-anchor="middle" x="1121.25" y="-533.76" font-family="Inter,Arial,sans-serif" font-size="10.00">load/build</text>
</g>
<!-- aux -->
<g id="node8" class="node">
<title>aux</title>
<polygon fill="#f2f4f7" stroke="#344054" stroke-width="1.2" points="1368.03,-668.52 1365.03,-672.52 1344.03,-672.52 1341.03,-668.52 1208.25,-668.52 1208.25,-630 1368.03,-630 1368.03,-668.52"/>
<text xml:space="preserve" text-anchor="middle" x="1288.14" y="-652.31" font-family="Inter,Arial,sans-serif" font-size="11.00">SKU auxiliary tables</text>
<text xml:space="preserve" text-anchor="middle" x="1288.14" y="-638.81" font-family="Inter,Arial,sans-serif" font-size="11.00">price bucket + 16&#45;token name</text>
</g>
<!-- dataset&#45;&gt;aux -->
<g id="edge8" class="edge">
<title>dataset&#45;&gt;aux</title>
<path fill="none" stroke="#475467" stroke-width="1.1" d="M1011.99,-522.62C1084.58,-556.99 1192.87,-608.26 1192.87,-608.26 1192.87,-608.26 1212.28,-616.7 1233.48,-625.92"/>
<polygon fill="#475467" stroke="#475467" stroke-width="1.1" points="1013.17,-520.28 1005.26,-519.44 1010.92,-525.02 1013.17,-520.28"/>
<polygon fill="#475467" stroke="#475467" stroke-width="1.1" points="1232.21,-628.23 1240.13,-628.82 1234.3,-623.42 1232.21,-628.23"/>
<text xml:space="preserve" text-anchor="middle" x="1121.25" y="-596.39" font-family="Inter,Arial,sans-serif" font-size="10.00">load/build</text>
</g>
<!-- vocab&#45;&gt;train_cli -->
<g id="edge10" class="edge">
<title>vocab&#45;&gt;train_cli</title>
<path fill="none" stroke="#475467" stroke-width="1.1" d="M1225.11,-565.16C1068.58,-562.38 657.04,-555.08 474.81,-551.84"/>
<polygon fill="#475467" stroke="#475467" stroke-width="1.1" points="474.99,-549.22 467.45,-551.71 474.9,-554.47 474.99,-549.22"/>
</g>
<!-- aux&#45;&gt;train_cli -->
<g id="edge11" class="edge">
<title>aux&#45;&gt;train_cli</title>
<path fill="none" stroke="#475467" stroke-width="1.1" d="M1207.99,-642.09C1006.89,-623.88 492.06,-577.26 492.06,-577.26 492.06,-577.26 484.97,-575.46 474.45,-572.78"/>
<polygon fill="#475467" stroke="#475467" stroke-width="1.1" points="475.32,-570.3 467.41,-571 474.03,-575.39 475.32,-570.3"/>
</g>
<!-- svdpq_tokens -->
<g id="node9" class="node">
<title>svdpq_tokens</title>
<polygon fill="#f2f4f7" stroke="#344054" stroke-width="1.2" points="117.78,-569.52 114.78,-573.52 93.78,-573.52 90.78,-569.52 0,-569.52 0,-531 117.78,-531 117.78,-569.52"/>
<text xml:space="preserve" text-anchor="middle" x="58.89" y="-553.31" font-family="Inter,Arial,sans-serif" font-size="11.00">SVD&#45;PQ tokens</text>
<text xml:space="preserve" text-anchor="middle" x="58.89" y="-539.81" font-family="Inter,Arial,sans-serif" font-size="11.00">sku_tokens_vK.joblib</text>
</g>
<!-- svdpq_tokens&#45;&gt;train_cli -->
<g id="edge9" class="edge">
<title>svdpq_tokens&#45;&gt;train_cli</title>
<path fill="none" stroke="#475467" stroke-width="1.1" stroke-dasharray="5,2" d="M118.17,-550.26C167.36,-550.26 238.55,-550.26 294.86,-550.26"/>
<polygon fill="#475467" stroke="#475467" stroke-width="1.1" points="294.6,-552.89 302.1,-550.26 294.6,-547.64 294.6,-552.89"/>
<text xml:space="preserve" text-anchor="middle" x="211.16" y="-552.76" font-family="Inter,Arial,sans-serif" font-size="10.00">when item_head_mode=svdpq</text>
</g>
<!-- embeddings -->
<g id="node11" class="node">
<title>embeddings</title>
<path fill="#f0f9ff" stroke="#344054" stroke-width="1.2" d="M1367.65,-269.27C1367.65,-269.27 1208.62,-269.27 1208.62,-269.27 1202.62,-269.27 1196.62,-263.27 1196.62,-257.27 1196.62,-257.27 1196.62,-229.25 1196.62,-229.25 1196.62,-223.25 1202.62,-217.25 1208.62,-217.25 1208.62,-217.25 1367.65,-217.25 1367.65,-217.25 1373.65,-217.25 1379.65,-223.25 1379.65,-229.25 1379.65,-229.25 1379.65,-257.27 1379.65,-257.27 1379.65,-263.27 1373.65,-269.27 1367.65,-269.27"/>
<text xml:space="preserve" text-anchor="middle" x="1288.14" y="-253.06" font-family="Inter,Arial,sans-serif" font-size="11.00">Input embeddings</text>
<text xml:space="preserve" text-anchor="middle" x="1288.14" y="-239.56" font-family="Inter,Arial,sans-serif" font-size="11.00">action, item, temporal bin, position,</text>
<text xml:space="preserve" text-anchor="middle" x="1288.14" y="-226.06" font-family="Inter,Arial,sans-serif" font-size="11.00">optional category, price, name</text>
</g>
<!-- model&#45;&gt;embeddings -->
<g id="edge13" class="edge">
<title>model&#45;&gt;embeddings</title>
<path fill="none" stroke="#475467" stroke-width="1.1" d="M1050.57,-244.65C1093.91,-244.4 1144.18,-244.1 1187.21,-243.85"/>
<polygon fill="#475467" stroke="#475467" stroke-width="1.1" points="1187.13,-246.47 1194.62,-243.81 1187.1,-241.22 1187.13,-246.47"/>
</g>
<!-- history -->
<g id="node12" class="node">
<title>history</title>
<path fill="#f0f9ff" stroke="#344054" stroke-width="1.2" d="M1359.4,-38.52C1359.4,-38.52 1216.87,-38.52 1216.87,-38.52 1210.87,-38.52 1204.87,-32.52 1204.87,-26.52 1204.87,-26.52 1204.87,-12 1204.87,-12 1204.87,-6 1210.87,0 1216.87,0 1216.87,0 1359.4,0 1359.4,0 1365.4,0 1371.4,-6 1371.4,-12 1371.4,-12 1371.4,-26.52 1371.4,-26.52 1371.4,-32.52 1365.4,-38.52 1359.4,-38.52"/>
<text xml:space="preserve" text-anchor="middle" x="1288.14" y="-22.31" font-family="Inter,Arial,sans-serif" font-size="11.00">CrossSessionHistory</text>
<text xml:space="preserve" text-anchor="middle" x="1288.14" y="-8.81" font-family="Inter,Arial,sans-serif" font-size="11.00">H&#45;window user history encoder</text>
</g>
<!-- model&#45;&gt;history -->
<g id="edge14" class="edge">
<title>model&#45;&gt;history</title>
<path fill="none" stroke="#475467" stroke-width="1.1" d="M974.54,-218.53C1012.25,-180.75 1076.62,-116.26 1076.62,-116.26 1076.62,-116.26 1192.87,-55.26 1192.87,-55.26 1192.87,-55.26 1208.6,-49.25 1227.2,-42.15"/>
<polygon fill="#475467" stroke="#475467" stroke-width="1.1" points="1227.69,-44.77 1233.76,-39.64 1225.82,-39.87 1227.69,-44.77"/>
</g>
<!-- heads -->
<g id="node13" class="node">
<title>heads</title>
<path fill="#f0f9ff" stroke="#344054" stroke-width="1.2" d="M1359.4,-109.52C1359.4,-109.52 1216.87,-109.52 1216.87,-109.52 1210.87,-109.52 1204.87,-103.52 1204.87,-97.52 1204.87,-97.52 1204.87,-83 1204.87,-83 1204.87,-77 1210.87,-71 1216.87,-71 1216.87,-71 1359.4,-71 1359.4,-71 1365.4,-71 1371.4,-77 1371.4,-83 1371.4,-83 1371.4,-97.52 1371.4,-97.52 1371.4,-103.52 1365.4,-109.52 1359.4,-109.52"/>
<text xml:space="preserve" text-anchor="middle" x="1288.14" y="-93.31" font-family="Inter,Arial,sans-serif" font-size="11.00">Prediction heads</text>
<text xml:space="preserve" text-anchor="middle" x="1288.14" y="-79.81" font-family="Inter,Arial,sans-serif" font-size="11.00">action, category, item, temporal</text>
</g>
<!-- model&#45;&gt;heads -->
<g id="edge15" class="edge">
<title>model&#45;&gt;heads</title>
<path fill="none" stroke="#475467" stroke-width="1.1" d="M983.38,-218.5C1021.5,-189.79 1076.62,-148.26 1076.62,-148.26 1076.62,-148.26 1147.18,-128.82 1206.6,-112.45"/>
<polygon fill="#475467" stroke="#475467" stroke-width="1.1" points="1207.14,-115.02 1213.67,-110.5 1205.74,-109.96 1207.14,-115.02"/>
</g>
<!-- losses -->
<g id="node15" class="node">
<title>losses</title>
<path fill="#fef3c7" stroke="#344054" stroke-width="1.2" d="M1371.4,-437.02C1371.4,-437.02 1204.87,-437.02 1204.87,-437.02 1198.87,-437.02 1192.87,-431.02 1192.87,-425.02 1192.87,-425.02 1192.87,-383.5 1192.87,-383.5 1192.87,-377.5 1198.87,-371.5 1204.87,-371.5 1204.87,-371.5 1371.4,-371.5 1371.4,-371.5 1377.4,-371.5 1383.4,-377.5 1383.4,-383.5 1383.4,-383.5 1383.4,-425.02 1383.4,-425.02 1383.4,-431.02 1377.4,-437.02 1371.4,-437.02"/>
<text xml:space="preserve" text-anchor="middle" x="1288.14" y="-420.81" font-family="Inter,Arial,sans-serif" font-size="11.00">Factored losses</text>
<text xml:space="preserve" text-anchor="middle" x="1288.14" y="-407.31" font-family="Inter,Arial,sans-serif" font-size="11.00">action CE, category CE,</text>
<text xml:space="preserve" text-anchor="middle" x="1288.14" y="-393.81" font-family="Inter,Arial,sans-serif" font-size="11.00">item CE/SVD&#45;PQ loss, temporal CE</text>
<text xml:space="preserve" text-anchor="middle" x="1288.14" y="-380.31" font-family="Inter,Arial,sans-serif" font-size="11.00">optional loss weights</text>
</g>
<!-- model&#45;&gt;losses -->
<g id="edge18" class="edge">
<title>model&#45;&gt;losses</title>
<path fill="none" stroke="#475467" stroke-width="1.1" d="M1003.58,-272.09C1038.38,-288.85 1076.62,-307.26 1076.62,-307.26 1076.62,-307.26 1147.24,-339.8 1206.68,-367.19"/>
<polygon fill="#475467" stroke="#475467" stroke-width="1.1" points="1205.56,-369.56 1213.47,-370.32 1207.76,-364.79 1205.56,-369.56"/>
<text xml:space="preserve" text-anchor="middle" x="1121.25" y="-349.57" font-family="Inter,Arial,sans-serif" font-size="10.00">logits + item context</text>
</g>
<!-- model&#45;&gt;val_loop -->
<g id="edge22" class="edge">
<title>model&#45;&gt;val_loop</title>
<path fill="none" stroke="#475467" stroke-width="1.1" d="M1050.57,-267.97C1096.1,-278.03 1149.29,-289.79 1193.69,-299.6"/>
<polygon fill="#475467" stroke="#475467" stroke-width="1.1" points="1192.93,-302.12 1200.82,-301.18 1194.06,-297 1192.93,-302.12"/>
</g>
<!-- item_modes -->
<g id="node14" class="node">
<title>item_modes</title>
<path fill="#ecfdf3" stroke="#344054" stroke-width="1.2" d="M1791.43,-109.52C1791.43,-109.52 1503.4,-109.52 1503.4,-109.52 1497.4,-109.52 1491.4,-103.52 1491.4,-97.52 1491.4,-97.52 1491.4,-83 1491.4,-83 1491.4,-77 1497.4,-71 1503.4,-71 1503.4,-71 1791.43,-71 1791.43,-71 1797.43,-71 1803.43,-77 1803.43,-83 1803.43,-83 1803.43,-97.52 1803.43,-97.52 1803.43,-103.52 1797.43,-109.52 1791.43,-109.52"/>
<text xml:space="preserve" text-anchor="middle" x="1647.42" y="-93.31" font-family="Inter,Arial,sans-serif" font-size="11.00">Item head modes</text>
<text xml:space="preserve" text-anchor="middle" x="1647.42" y="-79.81" font-family="Inter,Arial,sans-serif" font-size="11.00">flat full vocab | hierarchical cat pool | SVD&#45;PQ factored tokens</text>
</g>
<!-- heads&#45;&gt;item_modes -->
<g id="edge16" class="edge">
<title>heads&#45;&gt;item_modes</title>
<path fill="none" stroke="#475467" stroke-width="1.1" d="M1371.55,-90.26C1404.6,-90.26 1443.91,-90.26 1482.32,-90.26"/>
<polygon fill="#475467" stroke="#475467" stroke-width="1.1" points="1481.85,-92.89 1489.35,-90.26 1481.85,-87.64 1481.85,-92.89"/>
</g>
<!-- losses&#45;&gt;wandb -->
<g id="edge25" class="edge">
<title>losses&#45;&gt;wandb</title>
<path fill="none" stroke="#475467" stroke-width="1.1" d="M1383.94,-414.08C1446.21,-420.53 1526.07,-428.8 1581.26,-434.51"/>
<polygon fill="#475467" stroke="#475467" stroke-width="1.1" points="1580.85,-437.11 1588.58,-435.27 1581.39,-431.89 1580.85,-437.11"/>
<text xml:space="preserve" text-anchor="middle" x="1437.4" y="-424.15" font-family="Inter,Arial,sans-serif" font-size="10.00">train metrics</text>
</g>
<!-- optim -->
<g id="node17" class="node">
<title>optim</title>
<path fill="#e0f2fe" stroke="#344054" stroke-width="1.2" d="M1717.93,-357.52C1717.93,-357.52 1576.9,-357.52 1576.9,-357.52 1570.9,-357.52 1564.9,-351.52 1564.9,-345.52 1564.9,-345.52 1564.9,-331 1564.9,-331 1564.9,-325 1570.9,-319 1576.9,-319 1576.9,-319 1717.93,-319 1717.93,-319 1723.93,-319 1729.93,-325 1729.93,-331 1729.93,-331 1729.93,-345.52 1729.93,-345.52 1729.93,-351.52 1723.93,-357.52 1717.93,-357.52"/>
<text xml:space="preserve" text-anchor="middle" x="1647.42" y="-341.31" font-family="Inter,Arial,sans-serif" font-size="11.00">AdamW + CosineAnnealingLR</text>
<text xml:space="preserve" text-anchor="middle" x="1647.42" y="-327.81" font-family="Inter,Arial,sans-serif" font-size="11.00">bf16 autocast, grad clipping</text>
</g>
<!-- losses&#45;&gt;optim -->
<g id="edge20" class="edge">
<title>losses&#45;&gt;optim</title>
<path fill="none" stroke="#475467" stroke-width="1.1" d="M1378.86,-370.97C1396.87,-364.28 1410.4,-359.26 1410.4,-359.26 1410.4,-359.26 1489.14,-352.25 1555.65,-346.34"/>
<polygon fill="#475467" stroke="#475467" stroke-width="1.1" points="1555.63,-348.97 1562.87,-345.69 1555.17,-343.74 1555.63,-348.97"/>
</g>
<!-- mitigation -->
<g id="node16" class="node">
<title>mitigation</title>
<path fill="#fef3c7" stroke="#344054" stroke-width="1.2" d="M1017.75,-434.27C1017.75,-434.27 875.97,-434.27 875.97,-434.27 869.97,-434.27 863.97,-428.27 863.97,-422.27 863.97,-422.27 863.97,-394.25 863.97,-394.25 863.97,-388.25 869.97,-382.25 875.97,-382.25 875.97,-382.25 1017.75,-382.25 1017.75,-382.25 1023.75,-382.25 1029.75,-388.25 1029.75,-394.25 1029.75,-394.25 1029.75,-422.27 1029.75,-422.27 1029.75,-428.27 1023.75,-434.27 1017.75,-434.27"/>
<text xml:space="preserve" text-anchor="middle" x="946.86" y="-418.06" font-family="Inter,Arial,sans-serif" font-size="11.00">Popularity mitigation</text>
<text xml:space="preserve" text-anchor="middle" x="946.86" y="-404.56" font-family="Inter,Arial,sans-serif" font-size="11.00">item inverse&#45;frequency weights</text>
<text xml:space="preserve" text-anchor="middle" x="946.86" y="-391.06" font-family="Inter,Arial,sans-serif" font-size="11.00">category logit adjustment</text>
</g>
<!-- mitigation&#45;&gt;losses -->
<g id="edge19" class="edge">
<title>mitigation&#45;&gt;losses</title>
<path fill="none" stroke="#475467" stroke-width="1.1" stroke-dasharray="5,2" d="M1029.99,-407.29C1076.14,-406.75 1134.2,-406.06 1183.46,-405.48"/>
<polygon fill="#475467" stroke="#475467" stroke-width="1.1" points="1183.42,-408.11 1190.89,-405.39 1183.36,-402.86 1183.42,-408.11"/>
</g>
<!-- optim&#45;&gt;model -->
<g id="edge21" class="edge">
<title>optim&#45;&gt;model</title>
<path fill="none" stroke="#475467" stroke-width="1.1" d="M1564.37,-319.21C1527.19,-310.57 1491.4,-302.26 1491.4,-302.26 1491.4,-302.26 1383.4,-189.26 1383.4,-189.26 1383.4,-189.26 1192.87,-189.26 1192.87,-189.26 1192.87,-189.26 1123.82,-205.04 1059.04,-219.85"/>
<polygon fill="#475467" stroke="#475467" stroke-width="1.1" points="1058.69,-217.23 1051.97,-221.46 1059.86,-222.35 1058.69,-217.23"/>
<text xml:space="preserve" text-anchor="middle" x="1288.14" y="-191.76" font-family="Inter,Arial,sans-serif" font-size="10.00">backprop update</text>
</g>
<!-- val_loop&#45;&gt;wandb -->
<g id="edge26" class="edge">
<title>val_loop&#45;&gt;wandb</title>
<path fill="none" stroke="#475467" stroke-width="1.1" d="M1347.73,-340.11C1412.19,-361.93 1515.44,-396.9 1582.09,-419.48"/>
<polygon fill="#475467" stroke="#475467" stroke-width="1.1" points="1580.91,-421.85 1588.86,-421.77 1582.6,-416.88 1580.91,-421.85"/>
<text xml:space="preserve" text-anchor="middle" x="1437.4" y="-379.63" font-family="Inter,Arial,sans-serif" font-size="10.00">val metrics</text>
</g>
<!-- early -->
<g id="node20" class="node">
<title>early</title>
<path fill="#fee4e2" stroke="#344054" stroke-width="1.2" d="M1678.18,-286.52C1678.18,-286.52 1616.65,-286.52 1616.65,-286.52 1610.65,-286.52 1604.65,-280.52 1604.65,-274.52 1604.65,-274.52 1604.65,-260 1604.65,-260 1604.65,-254 1610.65,-248 1616.65,-248 1616.65,-248 1678.18,-248 1678.18,-248 1684.18,-248 1690.18,-254 1690.18,-260 1690.18,-260 1690.18,-274.52 1690.18,-274.52 1690.18,-280.52 1684.18,-286.52 1678.18,-286.52"/>
<text xml:space="preserve" text-anchor="middle" x="1647.42" y="-270.31" font-family="Inter,Arial,sans-serif" font-size="11.00">Early stopping</text>
<text xml:space="preserve" text-anchor="middle" x="1647.42" y="-256.81" font-family="Inter,Arial,sans-serif" font-size="11.00">val_loss</text>
</g>
<!-- val_loop&#45;&gt;early -->
<g id="edge24" class="edge">
<title>val_loop&#45;&gt;early</title>
<path fill="none" stroke="#475467" stroke-width="1.1" d="M1373.81,-307.7C1442.75,-297.47 1537.81,-283.37 1595.53,-274.81"/>
<polygon fill="#475467" stroke="#475467" stroke-width="1.1" points="1595.79,-277.42 1602.82,-273.73 1595.02,-272.23 1595.79,-277.42"/>
</g>
<!-- checkpoint -->
<g id="node19" class="node">
<title>checkpoint</title>
<polygon fill="#ecfdf3" stroke="#344054" stroke-width="1.2" points="2073.46,-293.27 2070.46,-297.27 2049.46,-297.27 2046.46,-293.27 1900.18,-293.27 1900.18,-241.25 2073.46,-241.25 2073.46,-293.27"/>
<text xml:space="preserve" text-anchor="middle" x="1986.82" y="-277.06" font-family="Inter,Arial,sans-serif" font-size="11.00">Best checkpoint</text>
<text xml:space="preserve" text-anchor="middle" x="1986.82" y="-263.56" font-family="Inter,Arial,sans-serif" font-size="11.00">model.pt + model.yaml</text>
<text xml:space="preserve" text-anchor="middle" x="1986.82" y="-250.06" font-family="Inter,Arial,sans-serif" font-size="11.00">config snapshot + best metadata</text>
</g>
<!-- early&#45;&gt;checkpoint -->
<g id="edge27" class="edge">
<title>early&#45;&gt;checkpoint</title>
<path fill="none" stroke="#475467" stroke-width="1.1" d="M1690.47,-267.26C1740.34,-267.26 1825.02,-267.26 1890.95,-267.26"/>
<polygon fill="#475467" stroke="#475467" stroke-width="1.1" points="1890.55,-269.89 1898.05,-267.26 1890.55,-264.64 1890.55,-269.89"/>
<text xml:space="preserve" text-anchor="middle" x="1851.81" y="-269.76" font-family="Inter,Arial,sans-serif" font-size="10.00">save best</text>
</g>
</g>
</svg>
